<svg width="90" height="91" viewBox="0 0 90 91" fill="none" xmlns="http://www.w3.org/2000/svg">
<g clip-path="url(#clip0_15484_71219)">
<path d="M90 0.675232H0V90.6752H90V0.675232Z" fill="white"/>
<path d="M2.57153 3.24664H5.14296V5.81807H2.57153V3.24664ZM5.14296 3.24664H7.71439V5.81807H5.14296V3.24664ZM7.71439 3.24664H10.2858V5.81807H7.71439V3.24664ZM10.2858 3.24664H12.8572V5.81807H10.2858V3.24664ZM12.8572 3.24664H15.4287V5.81807H12.8572V3.24664ZM15.4287 3.24664H18.0001V5.81807H15.4287V3.24664ZM18.0001 3.24664H20.5715V5.81807H18.0001V3.24664ZM28.2858 3.24664H30.8573V5.81807H28.2858V3.24664ZM33.4287 3.24664H36.0001V5.81807H33.4287V3.24664ZM43.7144 3.24664H46.2858V5.81807H43.7144V3.24664ZM46.2858 3.24664H48.8573V5.81807H46.2858V3.24664ZM48.8573 3.24664H51.4287V5.81807H48.8573V3.24664ZM51.4287 3.24664H54.0001V5.81807H51.4287V3.24664ZM54.0001 3.24664H56.5715V5.81807H54.0001V3.24664ZM56.5715 3.24664H59.143V5.81807H56.5715V3.24664ZM59.143 3.24664H61.7144V5.81807H59.143V3.24664ZM61.7144 3.24664H64.2858V5.81807H61.7144V3.24664ZM69.4287 3.24664H72.0001V5.81807H69.4287V3.24664ZM72.0001 3.24664H74.5715V5.81807H72.0001V3.24664ZM74.5715 3.24664H77.143V5.81807H74.5715V3.24664ZM77.143 3.24664H79.7144V5.81807H77.143V3.24664ZM79.7144 3.24664H82.2858V5.81807H79.7144V3.24664ZM82.2858 3.24664H84.8573V5.81807H82.2858V3.24664ZM84.8573 3.24664H87.4287V5.81807H84.8573V3.24664ZM2.57153 5.81807H5.14296V8.3895H2.57153V5.81807ZM18.0001 5.81807H20.5715V8.3895H18.0001V5.81807ZM23.143 5.81807H25.7144V8.3895H23.143V5.81807ZM28.2858 5.81807H30.8573V8.3895H28.2858V5.81807ZM38.5715 5.81807H41.143V8.3895H38.5715V5.81807ZM41.143 5.81807H43.7144V8.3895H41.143V5.81807ZM43.7144 5.81807H46.2858V8.3895H43.7144V5.81807ZM48.8573 5.81807H51.4287V8.3895H48.8573V5.81807ZM54.0001 5.81807H56.5715V8.3895H54.0001V5.81807ZM69.4287 5.81807H72.0001V8.3895H69.4287V5.81807ZM84.8573 5.81807H87.4287V8.3895H84.8573V5.81807ZM2.57153 8.3895H5.14296V10.9609H2.57153V8.3895ZM7.71439 8.3895H10.2858V10.9609H7.71439V8.3895ZM10.2858 8.3895H12.8572V10.9609H10.2858V8.3895ZM12.8572 8.3895H15.4287V10.9609H12.8572V8.3895ZM18.0001 8.3895H20.5715V10.9609H18.0001V8.3895ZM33.4287 8.3895H36.0001V10.9609H33.4287V8.3895ZM38.5715 8.3895H41.143V10.9609H38.5715V8.3895ZM51.4287 8.3895H54.0001V10.9609H51.4287V8.3895ZM54.0001 8.3895H56.5715V10.9609H54.0001V8.3895ZM56.5715 8.3895H59.143V10.9609H56.5715V8.3895ZM61.7144 8.3895H64.2858V10.9609H61.7144V8.3895ZM69.4287 8.3895H72.0001V10.9609H69.4287V8.3895ZM74.5715 8.3895H77.143V10.9609H74.5715V8.3895ZM77.143 8.3895H79.7144V10.9609H77.143V8.3895ZM79.7144 8.3895H82.2858V10.9609H79.7144V8.3895ZM84.8573 8.3895H87.4287V10.9609H84.8573V8.3895ZM2.57153 10.9609H5.14296V13.5324H2.57153V10.9609ZM7.71439 10.9609H10.2858V13.5324H7.71439V10.9609ZM10.2858 10.9609H12.8572V13.5324H10.2858V10.9609ZM12.8572 10.9609H15.4287V13.5324H12.8572V10.9609ZM18.0001 10.9609H20.5715V13.5324H18.0001V10.9609ZM23.143 10.9609H25.7144V13.5324H23.143V10.9609ZM25.7144 10.9609H28.2858V13.5324H25.7144V10.9609ZM28.2858 10.9609H30.8573V13.5324H28.2858V10.9609ZM33.4287 10.9609H36.0001V13.5324H33.4287V10.9609ZM36.0001 10.9609H38.5715V13.5324H36.0001V10.9609ZM38.5715 10.9609H41.143V13.5324H38.5715V10.9609ZM41.143 10.9609H43.7144V13.5324H41.143V10.9609ZM43.7144 10.9609H46.2858V13.5324H43.7144V10.9609ZM46.2858 10.9609H48.8573V13.5324H46.2858V10.9609ZM51.4287 10.9609H54.0001V13.5324H51.4287V10.9609ZM54.0001 10.9609H56.5715V13.5324H54.0001V10.9609ZM59.143 10.9609H61.7144V13.5324H59.143V10.9609ZM61.7144 10.9609H64.2858V13.5324H61.7144V10.9609ZM64.2858 10.9609H66.8573V13.5324H64.2858V10.9609ZM69.4287 10.9609H72.0001V13.5324H69.4287V10.9609ZM74.5715 10.9609H77.143V13.5324H74.5715V10.9609ZM77.143 10.9609H79.7144V13.5324H77.143V10.9609ZM79.7144 10.9609H82.2858V13.5324H79.7144V10.9609ZM84.8573 10.9609H87.4287V13.5324H84.8573V10.9609ZM2.57153 13.5324H5.14296V16.1038H2.57153V13.5324ZM7.71439 13.5324H10.2858V16.1038H7.71439V13.5324ZM10.2858 13.5324H12.8572V16.1038H10.2858V13.5324ZM12.8572 13.5324H15.4287V16.1038H12.8572V13.5324ZM18.0001 13.5324H20.5715V16.1038H18.0001V13.5324ZM25.7144 13.5324H28.2858V16.1038H25.7144V13.5324ZM38.5715 13.5324H41.143V16.1038H38.5715V13.5324ZM43.7144 13.5324H46.2858V16.1038H43.7144V13.5324ZM48.8573 13.5324H51.4287V16.1038H48.8573V13.5324ZM51.4287 13.5324H54.0001V16.1038H51.4287V13.5324ZM56.5715 13.5324H59.143V16.1038H56.5715V13.5324ZM61.7144 13.5324H64.2858V16.1038H61.7144V13.5324ZM69.4287 13.5324H72.0001V16.1038H69.4287V13.5324ZM74.5715 13.5324H77.143V16.1038H74.5715V13.5324ZM77.143 13.5324H79.7144V16.1038H77.143V13.5324ZM79.7144 13.5324H82.2858V16.1038H79.7144V13.5324ZM84.8573 13.5324H87.4287V16.1038H84.8573V13.5324ZM2.57153 16.1038H5.14296V18.6752H2.57153V16.1038ZM18.0001 16.1038H20.5715V18.6752H18.0001V16.1038ZM23.143 16.1038H25.7144V18.6752H23.143V16.1038ZM25.7144 16.1038H28.2858V18.6752H25.7144V16.1038ZM30.8573 16.1038H33.4287V18.6752H30.8573V16.1038ZM33.4287 16.1038H36.0001V18.6752H33.4287V16.1038ZM36.0001 16.1038H38.5715V18.6752H36.0001V16.1038ZM41.143 16.1038H43.7144V18.6752H41.143V16.1038ZM43.7144 16.1038H46.2858V18.6752H43.7144V16.1038ZM54.0001 16.1038H56.5715V18.6752H54.0001V16.1038ZM56.5715 16.1038H59.143V18.6752H56.5715V16.1038ZM59.143 16.1038H61.7144V18.6752H59.143V16.1038ZM64.2858 16.1038H66.8573V18.6752H64.2858V16.1038ZM69.4287 16.1038H72.0001V18.6752H69.4287V16.1038ZM84.8573 16.1038H87.4287V18.6752H84.8573V16.1038ZM2.57153 18.6752H5.14296V21.2466H2.57153V18.6752ZM5.14296 18.6752H7.71439V21.2466H5.14296V18.6752ZM7.71439 18.6752H10.2858V21.2466H7.71439V18.6752ZM10.2858 18.6752H12.8572V21.2466H10.2858V18.6752ZM12.8572 18.6752H15.4287V21.2466H12.8572V18.6752ZM15.4287 18.6752H18.0001V21.2466H15.4287V18.6752ZM18.0001 18.6752H20.5715V21.2466H18.0001V18.6752ZM23.143 18.6752H25.7144V21.2466H23.143V18.6752ZM28.2858 18.6752H30.8573V21.2466H28.2858V18.6752ZM33.4287 18.6752H36.0001V21.2466H33.4287V18.6752ZM38.5715 18.6752H41.143V21.2466H38.5715V18.6752ZM43.7144 18.6752H46.2858V21.2466H43.7144V18.6752ZM48.8573 18.6752H51.4287V21.2466H48.8573V18.6752ZM54.0001 18.6752H56.5715V21.2466H54.0001V18.6752ZM59.143 18.6752H61.7144V21.2466H59.143V18.6752ZM64.2858 18.6752H66.8573V21.2466H64.2858V18.6752ZM69.4287 18.6752H72.0001V21.2466H69.4287V18.6752ZM72.0001 18.6752H74.5715V21.2466H72.0001V18.6752ZM74.5715 18.6752H77.143V21.2466H74.5715V18.6752ZM77.143 18.6752H79.7144V21.2466H77.143V18.6752ZM79.7144 18.6752H82.2858V21.2466H79.7144V18.6752ZM82.2858 18.6752H84.8573V21.2466H82.2858V18.6752ZM84.8573 18.6752H87.4287V21.2466H84.8573V18.6752ZM25.7144 21.2466H28.2858V23.8181H25.7144V21.2466ZM28.2858 21.2466H30.8573V23.8181H28.2858V21.2466ZM30.8573 21.2466H33.4287V23.8181H30.8573V21.2466ZM41.143 21.2466H43.7144V23.8181H41.143V21.2466ZM43.7144 21.2466H46.2858V23.8181H43.7144V21.2466ZM48.8573 21.2466H51.4287V23.8181H48.8573V21.2466ZM51.4287 21.2466H54.0001V23.8181H51.4287V21.2466ZM56.5715 21.2466H59.143V23.8181H56.5715V21.2466ZM59.143 21.2466H61.7144V23.8181H59.143V21.2466ZM2.57153 23.8181H5.14296V26.3895H2.57153V23.8181ZM5.14296 23.8181H7.71439V26.3895H5.14296V23.8181ZM7.71439 23.8181H10.2858V26.3895H7.71439V23.8181ZM10.2858 23.8181H12.8572V26.3895H10.2858V23.8181ZM12.8572 23.8181H15.4287V26.3895H12.8572V23.8181ZM18.0001 23.8181H20.5715V26.3895H18.0001V23.8181ZM20.5715 23.8181H23.143V26.3895H20.5715V23.8181ZM23.143 23.8181H25.7144V26.3895H23.143V23.8181ZM25.7144 23.8181H28.2858V26.3895H25.7144V23.8181ZM30.8573 23.8181H33.4287V26.3895H30.8573V23.8181ZM36.0001 23.8181H38.5715V26.3895H36.0001V23.8181ZM41.143 23.8181H43.7144V26.3895H41.143V23.8181ZM43.7144 23.8181H46.2858V26.3895H43.7144V23.8181ZM46.2858 23.8181H48.8573V26.3895H46.2858V23.8181ZM48.8573 23.8181H51.4287V26.3895H48.8573V23.8181ZM54.0001 23.8181H56.5715V26.3895H54.0001V23.8181ZM66.8573 23.8181H69.4287V26.3895H66.8573V23.8181ZM72.0001 23.8181H74.5715V26.3895H72.0001V23.8181ZM77.143 23.8181H79.7144V26.3895H77.143V23.8181ZM82.2858 23.8181H84.8573V26.3895H82.2858V23.8181ZM7.71439 26.3895H10.2858V28.9609H7.71439V26.3895ZM10.2858 26.3895H12.8572V28.9609H10.2858V26.3895ZM15.4287 26.3895H18.0001V28.9609H15.4287V26.3895ZM23.143 26.3895H25.7144V28.9609H23.143V26.3895ZM28.2858 26.3895H30.8573V28.9609H28.2858V26.3895ZM33.4287 26.3895H36.0001V28.9609H33.4287V26.3895ZM43.7144 26.3895H46.2858V28.9609H43.7144V26.3895ZM46.2858 26.3895H48.8573V28.9609H46.2858V26.3895ZM51.4287 26.3895H54.0001V28.9609H51.4287V26.3895ZM54.0001 26.3895H56.5715V28.9609H54.0001V26.3895ZM61.7144 26.3895H64.2858V28.9609H61.7144V26.3895ZM69.4287 26.3895H72.0001V28.9609H69.4287V26.3895ZM79.7144 26.3895H82.2858V28.9609H79.7144V26.3895ZM82.2858 26.3895H84.8573V28.9609H82.2858V26.3895ZM84.8573 26.3895H87.4287V28.9609H84.8573V26.3895ZM5.14296 28.9609H7.71439V31.5324H5.14296V28.9609ZM18.0001 28.9609H20.5715V31.5324H18.0001V28.9609ZM28.2858 28.9609H30.8573V31.5324H28.2858V28.9609ZM36.0001 28.9609H38.5715V31.5324H36.0001V28.9609ZM38.5715 28.9609H41.143V31.5324H38.5715V28.9609ZM41.143 28.9609H43.7144V31.5324H41.143V28.9609ZM59.143 28.9609H61.7144V31.5324H59.143V28.9609ZM66.8573 28.9609H69.4287V31.5324H66.8573V28.9609ZM69.4287 28.9609H72.0001V31.5324H69.4287V28.9609ZM74.5715 28.9609H77.143V31.5324H74.5715V28.9609ZM77.143 28.9609H79.7144V31.5324H77.143V28.9609ZM82.2858 28.9609H84.8573V31.5324H82.2858V28.9609ZM5.14296 31.5324H7.71439V34.1038H5.14296V31.5324ZM12.8572 31.5324H15.4287V34.1038H12.8572V31.5324ZM20.5715 31.5324H23.143V34.1038H20.5715V31.5324ZM33.4287 31.5324H36.0001V34.1038H33.4287V31.5324ZM43.7144 31.5324H46.2858V34.1038H43.7144V31.5324ZM54.0001 31.5324H56.5715V34.1038H54.0001V31.5324ZM56.5715 31.5324H59.143V34.1038H56.5715V31.5324ZM59.143 31.5324H61.7144V34.1038H59.143V31.5324ZM61.7144 31.5324H64.2858V34.1038H61.7144V31.5324ZM64.2858 31.5324H66.8573V34.1038H64.2858V31.5324ZM66.8573 31.5324H69.4287V34.1038H66.8573V31.5324ZM69.4287 31.5324H72.0001V34.1038H69.4287V31.5324ZM74.5715 31.5324H77.143V34.1038H74.5715V31.5324ZM79.7144 31.5324H82.2858V34.1038H79.7144V31.5324ZM7.71439 34.1038H10.2858V36.6752H7.71439V34.1038ZM12.8572 34.1038H15.4287V36.6752H12.8572V34.1038ZM18.0001 34.1038H20.5715V36.6752H18.0001V34.1038ZM23.143 34.1038H25.7144V36.6752H23.143V34.1038ZM25.7144 34.1038H28.2858V36.6752H25.7144V34.1038ZM28.2858 34.1038H30.8573V36.6752H28.2858V34.1038ZM33.4287 34.1038H36.0001V36.6752H33.4287V34.1038ZM36.0001 34.1038H38.5715V36.6752H36.0001V34.1038ZM38.5715 34.1038H41.143V36.6752H38.5715V34.1038ZM46.2858 34.1038H48.8573V36.6752H46.2858V34.1038ZM51.4287 34.1038H54.0001V36.6752H51.4287V34.1038ZM59.143 34.1038H61.7144V36.6752H59.143V34.1038ZM66.8573 34.1038H69.4287V36.6752H66.8573V34.1038ZM72.0001 34.1038H74.5715V36.6752H72.0001V34.1038ZM74.5715 34.1038H77.143V36.6752H74.5715V34.1038ZM77.143 34.1038H79.7144V36.6752H77.143V34.1038ZM10.2858 36.6752H12.8572V39.2466H10.2858V36.6752ZM12.8572 36.6752H15.4287V39.2466H12.8572V36.6752ZM15.4287 36.6752H18.0001V39.2466H15.4287V36.6752ZM36.0001 36.6752H38.5715V39.2466H36.0001V36.6752ZM48.8573 36.6752H51.4287V39.2466H48.8573V36.6752ZM51.4287 36.6752H54.0001V39.2466H51.4287V36.6752ZM54.0001 36.6752H56.5715V39.2466H54.0001V36.6752ZM56.5715 36.6752H59.143V39.2466H56.5715V36.6752ZM61.7144 36.6752H64.2858V39.2466H61.7144V36.6752ZM69.4287 36.6752H72.0001V39.2466H69.4287V36.6752ZM82.2858 36.6752H84.8573V39.2466H82.2858V36.6752ZM84.8573 36.6752H87.4287V39.2466H84.8573V36.6752ZM2.57153 39.2466H5.14296V41.8181H2.57153V39.2466ZM5.14296 39.2466H7.71439V41.8181H5.14296V39.2466ZM18.0001 39.2466H20.5715V41.8181H18.0001V39.2466ZM28.2858 39.2466H30.8573V41.8181H28.2858V39.2466ZM30.8573 39.2466H33.4287V41.8181H30.8573V39.2466ZM33.4287 39.2466H36.0001V41.8181H33.4287V39.2466ZM41.143 39.2466H43.7144V41.8181H41.143V39.2466ZM46.2858 39.2466H48.8573V41.8181H46.2858V39.2466ZM48.8573 39.2466H51.4287V41.8181H48.8573V39.2466ZM54.0001 39.2466H56.5715V41.8181H54.0001V39.2466ZM56.5715 39.2466H59.143V41.8181H56.5715V39.2466ZM66.8573 39.2466H69.4287V41.8181H66.8573V39.2466ZM74.5715 39.2466H77.143V41.8181H74.5715V39.2466ZM82.2858 39.2466H84.8573V41.8181H82.2858V39.2466ZM2.57153 41.8181H5.14296V44.3895H2.57153V41.8181ZM5.14296 41.8181H7.71439V44.3895H5.14296V41.8181ZM15.4287 41.8181H18.0001V44.3895H15.4287V41.8181ZM25.7144 41.8181H28.2858V44.3895H25.7144V41.8181ZM28.2858 41.8181H30.8573V44.3895H28.2858V41.8181ZM30.8573 41.8181H33.4287V44.3895H30.8573V41.8181ZM41.143 41.8181H43.7144V44.3895H41.143V41.8181ZM56.5715 41.8181H59.143V44.3895H56.5715V41.8181ZM59.143 41.8181H61.7144V44.3895H59.143V41.8181ZM61.7144 41.8181H64.2858V44.3895H61.7144V41.8181ZM66.8573 41.8181H69.4287V44.3895H66.8573V41.8181ZM69.4287 41.8181H72.0001V44.3895H69.4287V41.8181ZM79.7144 41.8181H82.2858V44.3895H79.7144V41.8181ZM7.71439 44.3895H10.2858V46.9609H7.71439V44.3895ZM10.2858 44.3895H12.8572V46.9609H10.2858V44.3895ZM12.8572 44.3895H15.4287V46.9609H12.8572V44.3895ZM18.0001 44.3895H20.5715V46.9609H18.0001V44.3895ZM20.5715 44.3895H23.143V46.9609H20.5715V44.3895ZM25.7144 44.3895H28.2858V46.9609H25.7144V44.3895ZM30.8573 44.3895H33.4287V46.9609H30.8573V44.3895ZM36.0001 44.3895H38.5715V46.9609H36.0001V44.3895ZM38.5715 44.3895H41.143V46.9609H38.5715V44.3895ZM41.143 44.3895H43.7144V46.9609H41.143V44.3895ZM43.7144 44.3895H46.2858V46.9609H43.7144V44.3895ZM46.2858 44.3895H48.8573V46.9609H46.2858V44.3895ZM51.4287 44.3895H54.0001V46.9609H51.4287V44.3895ZM59.143 44.3895H61.7144V46.9609H59.143V44.3895ZM61.7144 44.3895H64.2858V46.9609H61.7144V44.3895ZM64.2858 44.3895H66.8573V46.9609H64.2858V44.3895ZM66.8573 44.3895H69.4287V46.9609H66.8573V44.3895ZM72.0001 44.3895H74.5715V46.9609H72.0001V44.3895ZM74.5715 44.3895H77.143V46.9609H74.5715V44.3895ZM82.2858 44.3895H84.8573V46.9609H82.2858V44.3895ZM5.14296 46.9609H7.71439V49.5324H5.14296V46.9609ZM12.8572 46.9609H15.4287V49.5324H12.8572V46.9609ZM15.4287 46.9609H18.0001V49.5324H15.4287V46.9609ZM23.143 46.9609H25.7144V49.5324H23.143V46.9609ZM33.4287 46.9609H36.0001V49.5324H33.4287V46.9609ZM36.0001 46.9609H38.5715V49.5324H36.0001V46.9609ZM43.7144 46.9609H46.2858V49.5324H43.7144V46.9609ZM46.2858 46.9609H48.8573V49.5324H46.2858V46.9609ZM48.8573 46.9609H51.4287V49.5324H48.8573V46.9609ZM51.4287 46.9609H54.0001V49.5324H51.4287V46.9609ZM54.0001 46.9609H56.5715V49.5324H54.0001V46.9609ZM56.5715 46.9609H59.143V49.5324H56.5715V46.9609ZM59.143 46.9609H61.7144V49.5324H59.143V46.9609ZM61.7144 46.9609H64.2858V49.5324H61.7144V46.9609ZM64.2858 46.9609H66.8573V49.5324H64.2858V46.9609ZM69.4287 46.9609H72.0001V49.5324H69.4287V46.9609ZM77.143 46.9609H79.7144V49.5324H77.143V46.9609ZM82.2858 46.9609H84.8573V49.5324H82.2858V46.9609ZM84.8573 46.9609H87.4287V49.5324H84.8573V46.9609ZM7.71439 49.5324H10.2858V52.1038H7.71439V49.5324ZM15.4287 49.5324H18.0001V52.1038H15.4287V49.5324ZM18.0001 49.5324H20.5715V52.1038H18.0001V49.5324ZM20.5715 49.5324H23.143V52.1038H20.5715V49.5324ZM23.143 49.5324H25.7144V52.1038H23.143V49.5324ZM25.7144 49.5324H28.2858V52.1038H25.7144V49.5324ZM28.2858 49.5324H30.8573V52.1038H28.2858V49.5324ZM38.5715 49.5324H41.143V52.1038H38.5715V49.5324ZM41.143 49.5324H43.7144V52.1038H41.143V49.5324ZM43.7144 49.5324H46.2858V52.1038H43.7144V49.5324ZM46.2858 49.5324H48.8573V52.1038H46.2858V49.5324ZM54.0001 49.5324H56.5715V52.1038H54.0001V49.5324ZM56.5715 49.5324H59.143V52.1038H56.5715V49.5324ZM66.8573 49.5324H69.4287V52.1038H66.8573V49.5324ZM69.4287 49.5324H72.0001V52.1038H69.4287V49.5324ZM72.0001 49.5324H74.5715V52.1038H72.0001V49.5324ZM74.5715 49.5324H77.143V52.1038H74.5715V49.5324ZM77.143 49.5324H79.7144V52.1038H77.143V49.5324ZM82.2858 49.5324H84.8573V52.1038H82.2858V49.5324ZM2.57153 52.1038H5.14296V54.6752H2.57153V52.1038ZM5.14296 52.1038H7.71439V54.6752H5.14296V52.1038ZM15.4287 52.1038H18.0001V54.6752H15.4287V52.1038ZM20.5715 52.1038H23.143V54.6752H20.5715V52.1038ZM25.7144 52.1038H28.2858V54.6752H25.7144V52.1038ZM28.2858 52.1038H30.8573V54.6752H28.2858V52.1038ZM33.4287 52.1038H36.0001V54.6752H33.4287V52.1038ZM41.143 52.1038H43.7144V54.6752H41.143V52.1038ZM43.7144 52.1038H46.2858V54.6752H43.7144V52.1038ZM56.5715 52.1038H59.143V54.6752H56.5715V52.1038ZM74.5715 52.1038H77.143V54.6752H74.5715V52.1038ZM79.7144 52.1038H82.2858V54.6752H79.7144V52.1038ZM2.57153 54.6752H5.14296V57.2466H2.57153V54.6752ZM7.71439 54.6752H10.2858V57.2466H7.71439V54.6752ZM10.2858 54.6752H12.8572V57.2466H10.2858V54.6752ZM12.8572 54.6752H15.4287V57.2466H12.8572V54.6752ZM18.0001 54.6752H20.5715V57.2466H18.0001V54.6752ZM28.2858 54.6752H30.8573V57.2466H28.2858V54.6752ZM33.4287 54.6752H36.0001V57.2466H33.4287V54.6752ZM36.0001 54.6752H38.5715V57.2466H36.0001V54.6752ZM41.143 54.6752H43.7144V57.2466H41.143V54.6752ZM43.7144 54.6752H46.2858V57.2466H43.7144V54.6752ZM46.2858 54.6752H48.8573V57.2466H46.2858V54.6752ZM59.143 54.6752H61.7144V57.2466H59.143V54.6752ZM61.7144 54.6752H64.2858V57.2466H61.7144V54.6752ZM64.2858 54.6752H66.8573V57.2466H64.2858V54.6752ZM66.8573 54.6752H69.4287V57.2466H66.8573V54.6752ZM72.0001 54.6752H74.5715V57.2466H72.0001V54.6752ZM74.5715 54.6752H77.143V57.2466H74.5715V54.6752ZM82.2858 54.6752H84.8573V57.2466H82.2858V54.6752ZM2.57153 57.2466H5.14296V59.8181H2.57153V57.2466ZM5.14296 57.2466H7.71439V59.8181H5.14296V57.2466ZM10.2858 57.2466H12.8572V59.8181H10.2858V57.2466ZM15.4287 57.2466H18.0001V59.8181H15.4287V57.2466ZM20.5715 57.2466H23.143V59.8181H20.5715V57.2466ZM23.143 57.2466H25.7144V59.8181H23.143V57.2466ZM28.2858 57.2466H30.8573V59.8181H28.2858V57.2466ZM36.0001 57.2466H38.5715V59.8181H36.0001V57.2466ZM38.5715 57.2466H41.143V59.8181H38.5715V57.2466ZM43.7144 57.2466H46.2858V59.8181H43.7144V57.2466ZM46.2858 57.2466H48.8573V59.8181H46.2858V57.2466ZM48.8573 57.2466H51.4287V59.8181H48.8573V57.2466ZM51.4287 57.2466H54.0001V59.8181H51.4287V57.2466ZM54.0001 57.2466H56.5715V59.8181H54.0001V57.2466ZM56.5715 57.2466H59.143V59.8181H56.5715V57.2466ZM59.143 57.2466H61.7144V59.8181H59.143V57.2466ZM61.7144 57.2466H64.2858V59.8181H61.7144V57.2466ZM69.4287 57.2466H72.0001V59.8181H69.4287V57.2466ZM72.0001 57.2466H74.5715V59.8181H72.0001V57.2466ZM77.143 57.2466H79.7144V59.8181H77.143V57.2466ZM82.2858 57.2466H84.8573V59.8181H82.2858V57.2466ZM84.8573 57.2466H87.4287V59.8181H84.8573V57.2466ZM2.57153 59.8181H5.14296V62.3895H2.57153V59.8181ZM7.71439 59.8181H10.2858V62.3895H7.71439V59.8181ZM12.8572 59.8181H15.4287V62.3895H12.8572V59.8181ZM18.0001 59.8181H20.5715V62.3895H18.0001V59.8181ZM23.143 59.8181H25.7144V62.3895H23.143V59.8181ZM25.7144 59.8181H28.2858V62.3895H25.7144V59.8181ZM28.2858 59.8181H30.8573V62.3895H28.2858V59.8181ZM30.8573 59.8181H33.4287V62.3895H30.8573V59.8181ZM33.4287 59.8181H36.0001V62.3895H33.4287V59.8181ZM38.5715 59.8181H41.143V62.3895H38.5715V59.8181ZM41.143 59.8181H43.7144V62.3895H41.143V59.8181ZM56.5715 59.8181H59.143V62.3895H56.5715V59.8181ZM66.8573 59.8181H69.4287V62.3895H66.8573V59.8181ZM77.143 59.8181H79.7144V62.3895H77.143V59.8181ZM82.2858 59.8181H84.8573V62.3895H82.2858V59.8181ZM2.57153 62.3895H5.14296V64.9609H2.57153V62.3895ZM15.4287 62.3895H18.0001V64.9609H15.4287V62.3895ZM30.8573 62.3895H33.4287V64.9609H30.8573V62.3895ZM38.5715 62.3895H41.143V64.9609H38.5715V62.3895ZM41.143 62.3895H43.7144V64.9609H41.143V62.3895ZM43.7144 62.3895H46.2858V64.9609H43.7144V62.3895ZM54.0001 62.3895H56.5715V64.9609H54.0001V62.3895ZM56.5715 62.3895H59.143V64.9609H56.5715V62.3895ZM61.7144 62.3895H64.2858V64.9609H61.7144V62.3895ZM66.8573 62.3895H69.4287V64.9609H66.8573V62.3895ZM72.0001 62.3895H74.5715V64.9609H72.0001V62.3895ZM74.5715 62.3895H77.143V64.9609H74.5715V62.3895ZM77.143 62.3895H79.7144V64.9609H77.143V62.3895ZM79.7144 62.3895H82.2858V64.9609H79.7144V62.3895ZM2.57153 64.9609H5.14296V67.5324H2.57153V64.9609ZM7.71439 64.9609H10.2858V67.5324H7.71439V64.9609ZM10.2858 64.9609H12.8572V67.5324H10.2858V64.9609ZM18.0001 64.9609H20.5715V67.5324H18.0001V64.9609ZM28.2858 64.9609H30.8573V67.5324H28.2858V64.9609ZM30.8573 64.9609H33.4287V67.5324H30.8573V64.9609ZM36.0001 64.9609H38.5715V67.5324H36.0001V64.9609ZM38.5715 64.9609H41.143V67.5324H38.5715V64.9609ZM41.143 64.9609H43.7144V67.5324H41.143V64.9609ZM43.7144 64.9609H46.2858V67.5324H43.7144V64.9609ZM46.2858 64.9609H48.8573V67.5324H46.2858V64.9609ZM48.8573 64.9609H51.4287V67.5324H48.8573V64.9609ZM54.0001 64.9609H56.5715V67.5324H54.0001V64.9609ZM59.143 64.9609H61.7144V67.5324H59.143V64.9609ZM61.7144 64.9609H64.2858V67.5324H61.7144V64.9609ZM64.2858 64.9609H66.8573V67.5324H64.2858V64.9609ZM66.8573 64.9609H69.4287V67.5324H66.8573V64.9609ZM69.4287 64.9609H72.0001V67.5324H69.4287V64.9609ZM72.0001 64.9609H74.5715V67.5324H72.0001V64.9609ZM74.5715 64.9609H77.143V67.5324H74.5715V64.9609ZM77.143 64.9609H79.7144V67.5324H77.143V64.9609ZM84.8573 64.9609H87.4287V67.5324H84.8573V64.9609ZM23.143 67.5324H25.7144V70.1038H23.143V67.5324ZM25.7144 67.5324H28.2858V70.1038H25.7144V67.5324ZM28.2858 67.5324H30.8573V70.1038H28.2858V67.5324ZM33.4287 67.5324H36.0001V70.1038H33.4287V67.5324ZM43.7144 67.5324H46.2858V70.1038H43.7144V67.5324ZM46.2858 67.5324H48.8573V70.1038H46.2858V67.5324ZM48.8573 67.5324H51.4287V70.1038H48.8573V67.5324ZM51.4287 67.5324H54.0001V70.1038H51.4287V67.5324ZM54.0001 67.5324H56.5715V70.1038H54.0001V67.5324ZM56.5715 67.5324H59.143V70.1038H56.5715V67.5324ZM59.143 67.5324H61.7144V70.1038H59.143V67.5324ZM64.2858 67.5324H66.8573V70.1038H64.2858V67.5324ZM74.5715 67.5324H77.143V70.1038H74.5715V67.5324ZM79.7144 67.5324H82.2858V70.1038H79.7144V67.5324ZM84.8573 67.5324H87.4287V70.1038H84.8573V67.5324ZM2.57153 70.1038H5.14296V72.6752H2.57153V70.1038ZM5.14296 70.1038H7.71439V72.6752H5.14296V70.1038ZM7.71439 70.1038H10.2858V72.6752H7.71439V70.1038ZM10.2858 70.1038H12.8572V72.6752H10.2858V70.1038ZM12.8572 70.1038H15.4287V72.6752H12.8572V70.1038ZM15.4287 70.1038H18.0001V72.6752H15.4287V70.1038ZM18.0001 70.1038H20.5715V72.6752H18.0001V70.1038ZM23.143 70.1038H25.7144V72.6752H23.143V70.1038ZM25.7144 70.1038H28.2858V72.6752H25.7144V70.1038ZM28.2858 70.1038H30.8573V72.6752H28.2858V70.1038ZM36.0001 70.1038H38.5715V72.6752H36.0001V70.1038ZM41.143 70.1038H43.7144V72.6752H41.143V70.1038ZM46.2858 70.1038H48.8573V72.6752H46.2858V70.1038ZM54.0001 70.1038H56.5715V72.6752H54.0001V70.1038ZM61.7144 70.1038H64.2858V72.6752H61.7144V70.1038ZM64.2858 70.1038H66.8573V72.6752H64.2858V70.1038ZM69.4287 70.1038H72.0001V72.6752H69.4287V70.1038ZM74.5715 70.1038H77.143V72.6752H74.5715V70.1038ZM79.7144 70.1038H82.2858V72.6752H79.7144V70.1038ZM82.2858 70.1038H84.8573V72.6752H82.2858V70.1038ZM2.57153 72.6752H5.14296V75.2467H2.57153V72.6752ZM18.0001 72.6752H20.5715V75.2467H18.0001V72.6752ZM28.2858 72.6752H30.8573V75.2467H28.2858V72.6752ZM33.4287 72.6752H36.0001V75.2467H33.4287V72.6752ZM48.8573 72.6752H51.4287V75.2467H48.8573V72.6752ZM54.0001 72.6752H56.5715V75.2467H54.0001V72.6752ZM56.5715 72.6752H59.143V75.2467H56.5715V72.6752ZM59.143 72.6752H61.7144V75.2467H59.143V72.6752ZM61.7144 72.6752H64.2858V75.2467H61.7144V72.6752ZM64.2858 72.6752H66.8573V75.2467H64.2858V72.6752ZM74.5715 72.6752H77.143V75.2467H74.5715V72.6752ZM77.143 72.6752H79.7144V75.2467H77.143V72.6752ZM79.7144 72.6752H82.2858V75.2467H79.7144V72.6752ZM82.2858 72.6752H84.8573V75.2467H82.2858V72.6752ZM84.8573 72.6752H87.4287V75.2467H84.8573V72.6752ZM2.57153 75.2467H5.14296V77.8181H2.57153V75.2467ZM7.71439 75.2467H10.2858V77.8181H7.71439V75.2467ZM10.2858 75.2467H12.8572V77.8181H10.2858V75.2467ZM12.8572 75.2467H15.4287V77.8181H12.8572V75.2467ZM18.0001 75.2467H20.5715V77.8181H18.0001V75.2467ZM23.143 75.2467H25.7144V77.8181H23.143V75.2467ZM25.7144 75.2467H28.2858V77.8181H25.7144V75.2467ZM33.4287 75.2467H36.0001V77.8181H33.4287V75.2467ZM36.0001 75.2467H38.5715V77.8181H36.0001V75.2467ZM38.5715 75.2467H41.143V77.8181H38.5715V75.2467ZM41.143 75.2467H43.7144V77.8181H41.143V75.2467ZM43.7144 75.2467H46.2858V77.8181H43.7144V75.2467ZM46.2858 75.2467H48.8573V77.8181H46.2858V75.2467ZM64.2858 75.2467H66.8573V77.8181H64.2858V75.2467ZM66.8573 75.2467H69.4287V77.8181H66.8573V75.2467ZM69.4287 75.2467H72.0001V77.8181H69.4287V75.2467ZM72.0001 75.2467H74.5715V77.8181H72.0001V75.2467ZM74.5715 75.2467H77.143V77.8181H74.5715V75.2467ZM2.57153 77.8181H5.14296V80.3895H2.57153V77.8181ZM7.71439 77.8181H10.2858V80.3895H7.71439V77.8181ZM10.2858 77.8181H12.8572V80.3895H10.2858V77.8181ZM12.8572 77.8181H15.4287V80.3895H12.8572V77.8181ZM18.0001 77.8181H20.5715V80.3895H18.0001V77.8181ZM23.143 77.8181H25.7144V80.3895H23.143V77.8181ZM36.0001 77.8181H38.5715V80.3895H36.0001V77.8181ZM43.7144 77.8181H46.2858V80.3895H43.7144V77.8181ZM48.8573 77.8181H51.4287V80.3895H48.8573V77.8181ZM51.4287 77.8181H54.0001V80.3895H51.4287V77.8181ZM54.0001 77.8181H56.5715V80.3895H54.0001V77.8181ZM61.7144 77.8181H64.2858V80.3895H61.7144V77.8181ZM74.5715 77.8181H77.143V80.3895H74.5715V77.8181ZM77.143 77.8181H79.7144V80.3895H77.143V77.8181ZM2.57153 80.3895H5.14296V82.9609H2.57153V80.3895ZM7.71439 80.3895H10.2858V82.9609H7.71439V80.3895ZM10.2858 80.3895H12.8572V82.9609H10.2858V80.3895ZM12.8572 80.3895H15.4287V82.9609H12.8572V80.3895ZM18.0001 80.3895H20.5715V82.9609H18.0001V80.3895ZM23.143 80.3895H25.7144V82.9609H23.143V80.3895ZM30.8573 80.3895H33.4287V82.9609H30.8573V80.3895ZM33.4287 80.3895H36.0001V82.9609H33.4287V80.3895ZM36.0001 80.3895H38.5715V82.9609H36.0001V80.3895ZM38.5715 80.3895H41.143V82.9609H38.5715V80.3895ZM41.143 80.3895H43.7144V82.9609H41.143V80.3895ZM43.7144 80.3895H46.2858V82.9609H43.7144V80.3895ZM46.2858 80.3895H48.8573V82.9609H46.2858V80.3895ZM48.8573 80.3895H51.4287V82.9609H48.8573V80.3895ZM59.143 80.3895H61.7144V82.9609H59.143V80.3895ZM64.2858 80.3895H66.8573V82.9609H64.2858V80.3895ZM69.4287 80.3895H72.0001V82.9609H69.4287V80.3895ZM79.7144 80.3895H82.2858V82.9609H79.7144V80.3895ZM82.2858 80.3895H84.8573V82.9609H82.2858V80.3895ZM2.57153 82.9609H5.14296V85.5324H2.57153V82.9609ZM18.0001 82.9609H20.5715V85.5324H18.0001V82.9609ZM23.143 82.9609H25.7144V85.5324H23.143V82.9609ZM28.2858 82.9609H30.8573V85.5324H28.2858V82.9609ZM30.8573 82.9609H33.4287V85.5324H30.8573V82.9609ZM41.143 82.9609H43.7144V85.5324H41.143V82.9609ZM54.0001 82.9609H56.5715V85.5324H54.0001V82.9609ZM56.5715 82.9609H59.143V85.5324H56.5715V82.9609ZM59.143 82.9609H61.7144V85.5324H59.143V82.9609ZM66.8573 82.9609H69.4287V85.5324H66.8573V82.9609ZM69.4287 82.9609H72.0001V85.5324H69.4287V82.9609ZM77.143 82.9609H79.7144V85.5324H77.143V82.9609ZM79.7144 82.9609H82.2858V85.5324H79.7144V82.9609ZM2.57153 85.5324H5.14296V88.1038H2.57153V85.5324ZM5.14296 85.5324H7.71439V88.1038H5.14296V85.5324ZM7.71439 85.5324H10.2858V88.1038H7.71439V85.5324ZM10.2858 85.5324H12.8572V88.1038H10.2858V85.5324ZM12.8572 85.5324H15.4287V88.1038H12.8572V85.5324ZM15.4287 85.5324H18.0001V88.1038H15.4287V85.5324ZM18.0001 85.5324H20.5715V88.1038H18.0001V85.5324ZM23.143 85.5324H25.7144V88.1038H23.143V85.5324ZM25.7144 85.5324H28.2858V88.1038H25.7144V85.5324ZM30.8573 85.5324H33.4287V88.1038H30.8573V85.5324ZM33.4287 85.5324H36.0001V88.1038H33.4287V85.5324ZM41.143 85.5324H43.7144V88.1038H41.143V85.5324ZM46.2858 85.5324H48.8573V88.1038H46.2858V85.5324ZM59.143 85.5324H61.7144V88.1038H59.143V85.5324ZM61.7144 85.5324H64.2858V88.1038H61.7144V85.5324ZM64.2858 85.5324H66.8573V88.1038H64.2858V85.5324ZM69.4287 85.5324H72.0001V88.1038H69.4287V85.5324ZM72.0001 85.5324H74.5715V88.1038H72.0001V85.5324ZM82.2858 85.5324H84.8573V88.1038H82.2858V85.5324Z" fill="black"/>
</g>
<defs>
<clipPath id="clip0_15484_71219">
<rect width="90" height="90" fill="white" transform="translate(0 0.675232)"/>
</clipPath>
</defs>
</svg>
