<svg width="104" height="31" viewBox="0 0 104 31" fill="none" xmlns="http://www.w3.org/2000/svg">
<path d="M99.9074 1.29625C101.687 1.29625 103.134 2.70776 103.134 4.4424V26.9216C103.134 28.6562 101.687 30.0677 99.9074 30.0677H3.84259C2.06347 30.0677 0.615775 28.6562 0.615775 26.9216V4.4424C0.615775 2.70776 2.06347 1.29625 3.84259 1.29625H99.9074ZM99.9074 0.695871H3.84259C1.73013 0.695871 0 2.38275 0 4.4424V26.9216C0 28.9812 1.73013 30.6681 3.84259 30.6681H99.9074C102.02 30.6681 103.75 28.9812 103.75 26.9216V4.4424C103.75 2.38275 102.02 0.695871 99.9074 0.695871Z" fill="#A6A6A6"/>
<path d="M23.1539 15.5201C23.1316 13.1051 25.182 11.9302 25.2758 11.8755C24.1146 10.2247 22.3147 9.99919 21.6822 9.98121C20.1705 9.8261 18.7042 10.8631 17.9341 10.8631C17.1487 10.8631 15.9629 9.99619 14.6848 10.0217C13.0402 10.0464 11.5016 10.9748 10.6578 12.4165C8.91635 15.356 10.2151 19.6757 11.8836 22.0518C12.7182 23.2154 13.6935 24.5147 14.97 24.469C16.2188 24.4188 16.6853 23.6927 18.1924 23.6927C19.6856 23.6927 20.1237 24.469 21.4255 24.4398C22.7658 24.4188 23.6097 23.2709 24.4151 22.0967C25.3795 20.763 25.7669 19.4494 25.7823 19.382C25.7507 19.3715 23.1793 18.4146 23.1539 15.5201Z" fill="#181717"/>
<path d="M20.6947 8.41816C21.3663 7.59917 21.8259 6.48495 21.6983 5.35425C20.7262 5.39621 19.5104 6.00989 18.8103 6.8109C18.1908 7.51674 17.6375 8.67367 17.7804 9.76166C18.8725 9.84109 19.9938 9.22441 20.6947 8.41816Z" fill="#181717"/>
<path d="M41.2271 24.302H39.4818L38.5257 21.3729H35.2027L34.292 24.302H32.5928L35.8851 14.3302H37.9186L41.2271 24.302ZM38.2375 20.1441L37.373 17.5402C37.2815 17.2742 37.1101 16.6478 36.8573 15.6617H36.8265C36.7259 16.0858 36.5637 16.7122 36.3408 17.5402L35.4916 20.1441H38.2375Z" fill="#181717"/>
<path d="M49.6939 20.6184C49.6939 21.8413 49.355 22.8079 48.6772 23.5175C48.07 24.1491 47.3161 24.4646 46.4162 24.4646C45.4448 24.4646 44.747 24.1244 44.322 23.444H44.2912V27.2318H42.6528V19.4787C42.6528 18.7099 42.632 17.9209 42.592 17.1117H44.033L44.1245 18.2514H44.1552C44.7016 17.3927 45.5309 16.9641 46.6437 16.9641C47.5136 16.9641 48.2399 17.299 48.8209 17.9696C49.4034 18.641 49.6939 19.5237 49.6939 20.6184ZM48.0247 20.6769C48.0247 19.977 47.8633 19.4 47.539 18.946C47.1847 18.4724 46.709 18.2356 46.1126 18.2356C45.7084 18.2356 45.341 18.3675 45.0129 18.6275C44.6839 18.8898 44.4688 19.2322 44.3681 19.6563C44.3174 19.8541 44.292 20.016 44.292 20.1434V21.3422C44.292 21.8653 44.4565 22.3066 44.7854 22.667C45.1143 23.0274 45.5416 23.2073 46.0673 23.2073C46.6844 23.2073 47.1647 22.975 47.5083 22.5119C47.8526 22.0481 48.0247 21.4367 48.0247 20.6769Z" fill="#181717"/>
<path d="M58.1761 20.6184C58.1761 21.8413 57.8371 22.8079 57.1585 23.5175C56.5522 24.1491 55.7983 24.4646 54.8983 24.4646C53.9269 24.4646 53.2291 24.1244 52.8049 23.444H52.7741V27.2318H51.1357V19.4787C51.1357 18.7099 51.1149 17.9209 51.075 17.1117H52.5159L52.6074 18.2514H52.6381C53.1838 17.3927 54.013 16.9641 55.1266 16.9641C55.9958 16.9641 56.722 17.299 57.3046 17.9696C57.8848 18.641 58.1761 19.5237 58.1761 20.6184ZM56.5068 20.6769C56.5068 19.977 56.3447 19.4 56.0204 18.946C55.6661 18.4724 55.1919 18.2356 54.5948 18.2356C54.1898 18.2356 53.8232 18.3675 53.4943 18.6275C53.1653 18.8898 52.9509 19.2322 52.8502 19.6563C52.8003 19.8541 52.7741 20.016 52.7741 20.1434V21.3422C52.7741 21.8653 52.9386 22.3066 53.266 22.667C53.5949 23.0267 54.0222 23.2073 54.5494 23.2073C55.1665 23.2073 55.6469 22.975 55.9904 22.5119C56.3347 22.0481 56.5068 21.4367 56.5068 20.6769Z" fill="#181717"/>
<path d="M67.6596 21.5055C67.6596 22.3538 67.3576 23.0439 66.7512 23.5766C66.0849 24.1588 65.1573 24.4496 63.9653 24.4496C62.8648 24.4496 61.9825 24.2428 61.3147 23.8284L61.6943 22.4969C62.4137 22.921 63.203 23.1338 64.0629 23.1338C64.68 23.1338 65.1604 22.9974 65.5054 22.7262C65.849 22.4549 66.0203 22.0908 66.0203 21.6367C66.0203 21.2321 65.8789 20.8911 65.5953 20.6146C65.3133 20.3381 64.8422 20.0811 64.1843 19.8436C62.3937 19.1924 61.4991 18.2386 61.4991 16.9842C61.4991 16.1645 61.8127 15.4924 62.4406 14.9694C63.0662 14.4456 63.9008 14.1841 64.9444 14.1841C65.8751 14.1841 66.6482 14.3422 67.2653 14.6576L66.8557 15.9599C66.2793 15.6542 65.6276 15.5014 64.8983 15.5014C64.3219 15.5014 63.8716 15.64 63.5488 15.9157C63.276 16.1622 63.1392 16.4627 63.1392 16.8186C63.1392 17.2128 63.2952 17.5387 63.6087 17.795C63.8815 18.0318 64.3772 18.288 65.0966 18.5645C65.9765 18.91 66.6229 19.3138 67.0386 19.7769C67.4529 20.2385 67.6596 20.8162 67.6596 21.5055Z" fill="#181717"/>
<path d="M73.0769 18.3105H71.2709V21.8015C71.2709 22.6894 71.5891 23.133 72.2269 23.133C72.5197 23.133 72.7626 23.1083 72.9547 23.0588L73.0001 24.272C72.6773 24.3896 72.2523 24.4488 71.7259 24.4488C71.0788 24.4488 70.5731 24.2562 70.208 23.8718C69.8445 23.4867 69.6616 22.8408 69.6616 21.9334V18.309H68.5857V17.1101H69.6616V15.7936L71.2709 15.32V17.1101H73.0769V18.3105Z" fill="#181717"/>
<path d="M81.2255 20.6476C81.2255 21.7528 80.9012 22.6602 80.2541 23.3698C79.5755 24.1004 78.6748 24.4645 77.552 24.4645C76.4699 24.4645 75.6084 24.1146 74.9659 23.4147C74.3234 22.7149 74.0022 21.8315 74.0022 20.7667C74.0022 19.6525 74.3327 18.7398 74.9959 18.0302C75.6576 17.3199 76.5506 16.9647 77.6734 16.9647C78.7555 16.9647 79.6262 17.3146 80.2833 18.0152C80.9119 18.6949 81.2255 19.5723 81.2255 20.6476ZM79.5255 20.6993C79.5255 20.0361 79.3803 19.4674 79.0859 18.9931C78.7424 18.4191 78.2513 18.1329 77.615 18.1329C76.9564 18.1329 76.4561 18.4199 76.1126 18.9931C75.8182 19.4682 75.673 20.0459 75.673 20.7292C75.673 21.3924 75.8182 21.9611 76.1126 22.4347C76.4668 23.0086 76.9618 23.2949 77.6004 23.2949C78.226 23.2949 78.7171 23.0026 79.0713 22.4197C79.3734 21.9364 79.5255 21.3616 79.5255 20.6993Z" fill="#181717"/>
<path d="M86.5513 18.5166C86.3891 18.4874 86.2162 18.4724 86.0349 18.4724C85.4585 18.4724 85.0127 18.6845 84.6992 19.1093C84.4263 19.484 84.2895 19.9575 84.2895 20.5292V24.302H82.6518L82.6672 19.3761C82.6672 18.5473 82.6464 17.7928 82.6057 17.1124H84.0329L84.0928 18.4881H84.1381C84.3111 18.0153 84.5839 17.6347 84.9574 17.3492C85.3224 17.0922 85.7167 16.9641 86.1417 16.9641C86.2931 16.9641 86.4299 16.9745 86.5513 16.9933V18.5166Z" fill="#181717"/>
<path d="M93.8791 20.3666C93.8791 20.6528 93.8599 20.8941 93.8192 21.0912H88.9037C88.9229 21.8015 89.1604 22.3448 89.6169 22.7194C90.0311 23.0543 90.5668 23.2222 91.2247 23.2222C91.9524 23.2222 92.6164 23.109 93.2136 22.882L93.4703 23.991C92.7724 24.2877 91.9486 24.4353 90.9979 24.4353C89.8544 24.4353 88.9568 24.1071 88.3035 23.4515C87.6518 22.7958 87.3252 21.9154 87.3252 20.8109C87.3252 19.7267 87.6288 18.8238 88.2367 18.1037C88.873 17.3349 89.733 16.9505 90.815 16.9505C91.8779 16.9505 92.6825 17.3349 93.2289 18.1037C93.6616 18.7144 93.8791 19.4697 93.8791 20.3666ZM92.3167 19.9522C92.3275 19.4787 92.2207 19.0695 91.9986 18.7241C91.715 18.2798 91.2792 18.058 90.6928 18.058C90.1572 18.058 89.7214 18.2745 89.3887 18.7091C89.1158 19.0546 88.9537 19.4689 88.9037 19.9515H92.3167V19.9522Z" fill="#181717"/>
<path d="M37.6957 8.19574C37.6957 9.07767 37.4244 9.74155 36.8826 10.1874C36.3808 10.5988 35.6676 10.8048 34.7438 10.8048C34.2858 10.8048 33.8938 10.7853 33.5657 10.7464V5.92759C33.9937 5.86015 34.4549 5.82568 34.9529 5.82568C35.8328 5.82568 36.496 6.01226 36.9433 6.38541C37.4444 6.80727 37.6957 7.41046 37.6957 8.19574ZM36.8465 8.21747C36.8465 7.64575 36.6912 7.2074 36.3808 6.90169C36.0703 6.59672 35.6169 6.44386 35.0197 6.44386C34.7661 6.44386 34.5501 6.46035 34.3711 6.49481V10.1582C34.4702 10.1732 34.6516 10.1799 34.9152 10.1799C35.5315 10.1799 36.0073 10.0128 36.3423 9.67861C36.6774 9.34442 36.8465 8.85737 36.8465 8.21747Z" fill="#181717"/>
<path d="M42.1979 8.96599C42.1979 9.50923 42.0388 9.95432 41.7207 10.3035C41.3871 10.6624 40.9452 10.8415 40.3934 10.8415C39.8616 10.8415 39.4382 10.6699 39.1223 10.3252C38.8072 9.9813 38.6497 9.54745 38.6497 9.02443C38.6497 8.47744 38.8118 8.02861 39.1377 7.68018C39.4635 7.33175 39.9016 7.15717 40.4534 7.15717C40.9852 7.15717 41.4125 7.32876 41.736 7.67269C42.0434 8.00688 42.1979 8.43848 42.1979 8.96599ZM41.3625 8.99147C41.3625 8.66552 41.2903 8.38603 41.1466 8.15299C40.9775 7.87125 40.737 7.73038 40.4242 7.73038C40.1006 7.73038 39.8547 7.87125 39.6856 8.15299C39.5411 8.38603 39.4697 8.67001 39.4697 9.0057C39.4697 9.33165 39.5419 9.61114 39.6856 9.84417C39.8601 10.1259 40.1029 10.2668 40.4165 10.2668C40.7239 10.2668 40.9652 10.1237 41.1389 9.83668C41.288 9.59915 41.3625 9.31741 41.3625 8.99147Z" fill="#181717"/>
<path d="M48.236 7.22913L47.1025 10.7614H46.3647L45.8951 9.22752C45.776 8.84463 45.6792 8.46398 45.6039 8.08633H45.5893C45.5193 8.47447 45.4225 8.85437 45.298 9.22752L44.7992 10.7614H44.053L42.9871 7.22913H43.8148L44.2244 8.90832C44.3235 9.30545 44.405 9.68385 44.4703 10.042H44.4849C44.5448 9.74679 44.644 9.37064 44.7839 8.91581L45.298 7.22988H45.9543L46.4469 8.87985C46.566 9.28222 46.6629 9.66961 46.7374 10.0428H46.7597C46.8143 9.67936 46.8965 9.29196 47.0056 8.87985L47.4452 7.22988H48.236V7.22913Z" fill="#181717"/>
<path d="M52.4113 10.7614H51.6059V8.73825C51.6059 8.11483 51.3631 7.80312 50.8759 7.80312C50.6368 7.80312 50.4439 7.88854 50.2941 8.06013C50.1458 8.23172 50.0704 8.43403 50.0704 8.66557V10.7606H49.265V8.23846C49.265 7.92825 49.2551 7.59181 49.2358 7.22765H49.9436L49.9813 7.77989H50.0036C50.0973 7.6083 50.2372 7.46668 50.4209 7.35353C50.6392 7.22166 50.8835 7.15497 51.151 7.15497C51.4891 7.15497 51.7704 7.26137 51.994 7.47492C52.2722 7.73643 52.4113 8.12682 52.4113 8.64534V10.7614Z" fill="#181717"/>
<path d="M54.632 10.7614H53.8274V5.6084H54.632V10.7614Z" fill="#181717"/>
<path d="M59.3739 8.96599C59.3739 9.50923 59.2149 9.95432 58.8967 10.3035C58.5631 10.6624 58.1205 10.8415 57.5695 10.8415C57.0369 10.8415 56.6134 10.6699 56.2983 10.3252C55.9832 9.9813 55.8257 9.54745 55.8257 9.02443C55.8257 8.47744 55.9878 8.02861 56.3137 7.68018C56.6395 7.33175 57.0776 7.15717 57.6286 7.15717C58.1612 7.15717 58.5877 7.32876 58.9121 7.67269C59.2195 8.00688 59.3739 8.43848 59.3739 8.96599ZM58.5378 8.99147C58.5378 8.66552 58.4655 8.38603 58.3218 8.15299C58.1535 7.87125 57.9122 7.73038 57.6002 7.73038C57.2759 7.73038 57.03 7.87125 56.8616 8.15299C56.7172 8.38603 56.6457 8.67001 56.6457 9.0057C56.6457 9.33165 56.7179 9.61114 56.8616 9.84417C57.0361 10.1259 57.279 10.2668 57.5925 10.2668C57.8999 10.2668 58.1405 10.1237 58.3141 9.83668C58.464 9.59915 58.5378 9.31741 58.5378 8.99147Z" fill="#181717"/>
<path d="M63.272 10.7613H62.5488L62.4889 10.3545H62.4666C62.2191 10.6789 61.8664 10.8415 61.4084 10.8415C61.0664 10.8415 60.7897 10.7343 60.5814 10.5215C60.3924 10.3282 60.2979 10.0877 60.2979 9.80221C60.2979 9.37061 60.4823 9.04167 60.8535 8.81388C61.2239 8.58609 61.745 8.47444 62.4159 8.47969V8.41375C62.4159 7.94843 62.1653 7.71615 61.6635 7.71615C61.3061 7.71615 60.9911 7.80382 60.719 7.97766L60.5553 7.46213C60.8919 7.25907 61.3077 7.15717 61.798 7.15717C62.7448 7.15717 63.2198 7.64421 63.2198 8.61831V9.91911C63.2198 10.272 63.2374 10.553 63.272 10.7613ZM62.4359 9.54745V9.0027C61.5475 8.98772 61.1033 9.22525 61.1033 9.71455C61.1033 9.89887 61.154 10.0367 61.2577 10.1289C61.3615 10.2211 61.4937 10.2668 61.6512 10.2668C61.828 10.2668 61.9932 10.2121 62.1438 10.1034C62.2952 9.99404 62.3882 9.85541 62.4228 9.68532C62.4313 9.64711 62.4359 9.60065 62.4359 9.54745Z" fill="#181717"/>
<path d="M67.8485 10.7614H67.1337L67.0961 10.1941H67.0738C66.8455 10.6257 66.4567 10.8415 65.9103 10.8415C65.4737 10.8415 65.1102 10.6745 64.822 10.3403C64.5338 10.0061 64.3901 9.57223 64.3901 9.03947C64.3901 8.46775 64.5461 8.00468 64.8597 7.65101C65.1633 7.32131 65.5352 7.15646 65.9779 7.15646C66.4644 7.15646 66.8048 7.31607 66.9985 7.63602H67.0139V5.6084H67.82V9.80975C67.82 10.1537 67.8293 10.4706 67.8485 10.7614ZM67.0139 9.27175V8.6828C67.0139 8.58089 67.0062 8.49847 66.9916 8.43553C66.9462 8.2467 66.8486 8.08785 66.7003 7.95972C66.5504 7.83159 66.3698 7.76715 66.1616 7.76715C65.8611 7.76715 65.6259 7.88329 65.453 8.11632C65.2816 8.34936 65.1948 8.64683 65.1948 9.01025C65.1948 9.35942 65.277 9.64266 65.4422 9.86071C65.6167 10.093 65.8519 10.2091 66.1462 10.2091C66.4106 10.2091 66.6219 10.1125 66.7825 9.9184C66.9378 9.73932 67.0139 9.52352 67.0139 9.27175Z" fill="#181717"/>
<path d="M74.7365 8.96599C74.7365 9.50923 74.5774 9.95432 74.2592 10.3035C73.9257 10.6624 73.4846 10.8415 72.932 10.8415C72.401 10.8415 71.9775 10.6699 71.6609 10.3252C71.3458 9.9813 71.1882 9.54745 71.1882 9.02443C71.1882 8.47744 71.3504 8.02861 71.6762 7.68018C72.0021 7.33175 72.4401 7.15717 72.9927 7.15717C73.5238 7.15717 73.9518 7.32876 74.2746 7.67269C74.582 8.00688 74.7365 8.43848 74.7365 8.96599ZM73.9019 8.99147C73.9019 8.66552 73.8296 8.38603 73.6859 8.15299C73.5161 7.87125 73.2763 7.73038 72.9627 7.73038C72.64 7.73038 72.394 7.87125 72.2242 8.15299C72.0797 8.38603 72.0082 8.67001 72.0082 9.0057C72.0082 9.33165 72.0805 9.61114 72.2242 9.84417C72.3986 10.1259 72.6415 10.2668 72.9551 10.2668C73.2625 10.2668 73.5045 10.1237 73.6782 9.83668C73.8266 9.59915 73.9019 9.31741 73.9019 8.99147Z" fill="#181717"/>
<path d="M79.0671 10.7614H78.2624V8.73825C78.2624 8.11483 78.0196 7.80312 77.5316 7.80312C77.2926 7.80312 77.0997 7.88854 76.9506 8.06013C76.8015 8.23172 76.7269 8.43403 76.7269 8.66557V10.7606H75.9208V8.23846C75.9208 7.92825 75.9115 7.59181 75.8923 7.22765H76.5994L76.637 7.77989H76.6593C76.7538 7.6083 76.8937 7.46668 77.0766 7.35353C77.2956 7.22166 77.5393 7.15497 77.8075 7.15497C78.1449 7.15497 78.4261 7.26137 78.6498 7.47492C78.9287 7.73643 79.0671 8.12682 79.0671 8.64534V10.7614Z" fill="#181717"/>
<path d="M84.4872 7.81732H83.6003V9.53323C83.6003 9.96932 83.7578 10.1874 84.0699 10.1874C84.2143 10.1874 84.3342 10.1754 84.4288 10.1507L84.4495 10.7464C84.2904 10.8048 84.0814 10.834 83.8239 10.834C83.5058 10.834 83.2583 10.7396 83.0792 10.5508C82.8994 10.362 82.8103 10.0443 82.8103 9.59842V7.81732H82.2808V7.22911H82.8103V6.58171L83.5995 6.34943V7.22836H84.4864V7.81732H84.4872Z" fill="#181717"/>
<path d="M88.7508 10.7614H87.9446V8.75323C87.9446 8.12007 87.7018 7.80311 87.2153 7.80311C86.8418 7.80311 86.5867 7.98669 86.4468 8.35385C86.423 8.43103 86.4091 8.52544 86.4091 8.63634V10.7606H85.6045V5.6084H86.4091V7.73718H86.4245C86.6781 7.34978 87.0416 7.15646 87.5127 7.15646C87.8463 7.15646 88.1222 7.26286 88.3412 7.47642C88.614 7.74242 88.7508 8.13805 88.7508 8.66107V10.7614Z" fill="#181717"/>
<path d="M93.1493 8.82815C93.1493 8.96902 93.1386 9.08741 93.1194 9.18407H90.7039C90.7147 9.53324 90.8299 9.79925 91.0536 9.98358C91.258 10.1484 91.5216 10.2308 91.8444 10.2308C92.2017 10.2308 92.5276 10.1754 92.8212 10.0638L92.9472 10.6092C92.6037 10.7546 92.1994 10.8273 91.7314 10.8273C91.1704 10.8273 90.7285 10.6662 90.4088 10.344C90.0875 10.0218 89.9285 9.58944 89.9285 9.04694C89.9285 8.51419 90.0768 8.0706 90.3757 7.71693C90.6878 7.33928 91.1097 7.15045 91.6423 7.15045C92.1633 7.15045 92.5591 7.33928 92.8266 7.71693C93.0425 8.01665 93.1493 8.38755 93.1493 8.82815ZM92.3808 8.62508C92.387 8.39205 92.3339 8.19124 92.2248 8.02189C92.0849 7.80385 91.872 7.69445 91.5839 7.69445C91.321 7.69445 91.1066 7.80085 90.9429 8.0144C90.8092 8.18449 90.73 8.38755 90.7039 8.62508H92.3808Z" fill="#181717"/>
</svg>
