<svg width="37" height="40" viewBox="0 0 37 40" fill="none" xmlns="http://www.w3.org/2000/svg">
<path fill-rule="evenodd" clip-rule="evenodd" d="M8.06668 3.19995H28.6C31.4351 3.19995 33.7333 5.70716 33.7333 8.79995V20C33.7333 23.0927 31.4351 25.6 28.6 25.6H8.06668C5.23162 25.6 2.93335 23.0927 2.93335 20V8.79995C2.93335 5.70716 5.23162 3.19995 8.06668 3.19995ZM33.7333 24.7999V24C33.7333 24 32.6252 26.9287 28.6 27.2H8.06668C3.95535 26.8688 2.93335 24 2.93335 24V24.7999C2.93335 27.8927 5.23162 30.4 8.06668 30.4H28.6C31.4351 30.4 33.7333 27.8927 33.7333 24.7999ZM33.7333 29.5999V28.7999C33.7333 28.7999 32.6252 31.7287 28.6 32H8.06668C3.95535 31.6688 2.93335 28.7999 2.93335 28.7999V29.5999C2.93335 32.6927 5.23162 35.2 8.06668 35.2H28.6C31.4351 35.2 33.7333 32.6927 33.7333 29.5999ZM21.2667 9.59995H19.0667V8.79995C19.0667 8.35812 18.7384 7.99995 18.3334 7.99995C17.9283 7.99995 17.6 8.35812 17.6 8.79995V9.59995H16.8871C15.6721 9.59995 14.6871 10.6745 14.6871 12V12.8012C14.6871 14.1266 15.6721 15.2012 16.8871 15.2012H19.8C20.205 15.2012 20.5334 15.5593 20.5334 16.0012V16.8C20.5334 17.2418 20.205 17.6 19.8 17.6H16.1513C16.1211 17.1997 15.8195 16.8794 15.4428 16.8669C15.0379 16.8535 14.6998 17.2006 14.6875 17.6422L14.667 18.3756C14.6545 18.8268 14.9863 19.2 15.4 19.2H17.6V19.9859C17.6 20.4278 17.9283 20.7859 18.3334 20.7859C18.7384 20.7859 19.0667 20.4278 19.0667 19.9859V19.2H19.8C21.0151 19.2 22 18.1254 22 16.8V16.0012C22 14.6757 21.0151 13.6012 19.8 13.6012H16.8871C16.4821 13.6012 16.1538 13.243 16.1538 12.8012V12C16.1538 11.5581 16.4821 11.2 16.8871 11.2H20.5551C20.6347 11.5479 20.9231 11.8056 21.2667 11.8056C21.6717 11.8056 22 11.4474 22 11.0056V10.4C22 9.95812 21.6717 9.59995 21.2667 9.59995Z" fill="#EC008C"/>
</svg>
