<svg width="44" height="13" viewBox="0 0 44 13" fill="none" xmlns="http://www.w3.org/2000/svg">
<g clip-path="url(#clip0_10696_5602)">
<path d="M14.1819 8.07554C14.222 8.04808 14.2596 8.0306 14.2955 8.02311C14.3314 8.01646 14.3588 8.0123 14.3793 8.0123C14.428 8.0123 14.4716 8.02228 14.5118 8.04142C14.5519 8.06056 14.593 8.103 14.6357 8.16624L15.1151 8.87105C15.1297 8.89352 15.1433 8.91848 15.1562 8.94594C15.169 8.9734 15.1758 8.99587 15.1758 9.01251C15.1758 9.07659 15.1553 9.12901 15.1134 9.16895C15.0715 9.2089 15.0271 9.24468 14.9784 9.27547C14.7442 9.43357 14.4878 9.56089 14.2101 9.65658C13.9315 9.75228 13.6375 9.80054 13.3264 9.80054C13.0691 9.80054 12.8222 9.76892 12.5837 9.70484C12.3453 9.64077 12.1231 9.55007 11.918 9.43191C11.7128 9.31374 11.524 9.17228 11.353 9.00669C11.1821 8.8411 11.036 8.6572 10.9163 8.45416C10.7967 8.25112 10.7027 8.03227 10.636 7.79761C10.5693 7.56295 10.5352 7.31747 10.5352 7.06201C10.5352 6.80654 10.5685 6.56023 10.636 6.32391C10.7027 6.08759 10.7967 5.86874 10.9163 5.66736C11.036 5.46599 11.1821 5.28292 11.353 5.11733C11.524 4.95173 11.7128 4.8111 11.918 4.6946C12.1231 4.57811 12.3453 4.4874 12.5837 4.42333C12.8222 4.35926 13.0691 4.32764 13.3264 4.32764C13.6375 4.32764 13.9246 4.36758 14.1887 4.44829C14.4528 4.52901 14.7006 4.64801 14.9314 4.80694L14.9186 4.79446C14.981 4.83024 15.0314 4.87268 15.0681 4.92178C15.1049 4.97004 15.1237 5.03078 15.1237 5.10318C15.1237 5.15311 15.1066 5.2047 15.0724 5.25712L14.6912 5.88621C14.6109 6.02268 14.5143 6.09091 14.3998 6.09091C14.3742 6.09091 14.3425 6.08426 14.3058 6.07178C14.269 6.05929 14.2272 6.03766 14.1819 6.00687C14.0562 5.92615 13.9212 5.86042 13.7776 5.80882C13.6332 5.75723 13.4802 5.73144 13.3178 5.73144C13.1384 5.73144 12.9726 5.76722 12.8213 5.83795C12.67 5.90868 12.541 6.00521 12.4342 6.12753C12.3273 6.24985 12.2436 6.39131 12.1837 6.55275C12.1239 6.71418 12.094 6.8831 12.094 7.06118C12.094 7.23925 12.1239 7.41649 12.1837 7.57626C12.2436 7.73603 12.3273 7.87416 12.4342 7.99066C12.541 8.10716 12.67 8.19953 12.8213 8.26776C12.9726 8.33599 13.1384 8.37011 13.3178 8.37011C13.4802 8.37011 13.6332 8.34265 13.7759 8.2869C13.9186 8.23115 14.0545 8.16042 14.1827 8.07471L14.1819 8.07554Z" fill="#00ACD4"/>
<path d="M21.584 9.39696C21.584 9.44439 21.5754 9.48932 21.5583 9.53259C21.5412 9.57586 21.513 9.60998 21.4729 9.63495C21.4412 9.66573 21.4045 9.68487 21.3618 9.69319C21.319 9.70152 21.2814 9.70568 21.2506 9.70568H20.4071C20.3473 9.70568 20.2986 9.69819 20.2618 9.68238C20.2251 9.6674 20.1952 9.64576 20.1721 9.61747C20.149 9.59001 20.1302 9.55589 20.114 9.51512C20.0986 9.47518 20.0815 9.43107 20.0644 9.38364L20.0089 9.19641C19.932 9.27131 19.8439 9.34536 19.7456 9.41693C19.6474 9.48932 19.5388 9.55423 19.42 9.61081C19.3012 9.6674 19.1747 9.71317 19.0389 9.74811C18.903 9.78306 18.7628 9.80054 18.6175 9.80054C18.3577 9.80054 18.109 9.76892 17.8706 9.70484C17.6321 9.64077 17.4099 9.55007 17.2031 9.43191C16.9963 9.31374 16.8083 9.17228 16.6399 9.00669C16.4715 8.8411 16.3271 8.6572 16.2058 8.45416C16.0844 8.25112 15.9912 8.03227 15.9254 7.79761C15.8596 7.56295 15.8271 7.31747 15.8271 7.06201C15.8271 6.6759 15.8998 6.31642 16.0459 5.9844C16.1912 5.65238 16.3895 5.36364 16.6408 5.11733C16.892 4.87102 17.1869 4.67796 17.527 4.53816C17.8663 4.39754 18.2304 4.32764 18.6184 4.32764C18.7953 4.32764 18.9602 4.34678 19.1132 4.38589C19.2662 4.425 19.4055 4.47742 19.5328 4.54399C19.6602 4.61056 19.7747 4.69044 19.8773 4.78364C19.9798 4.87684 20.0695 4.97753 20.1473 5.0857L20.2712 4.70625C20.2994 4.63719 20.3234 4.5806 20.3422 4.53733C20.361 4.49406 20.3806 4.46244 20.402 4.44164C20.4234 4.42083 20.4499 4.40669 20.4815 4.40003C20.5131 4.39337 20.5567 4.38921 20.6139 4.38921H21.2515C21.2831 4.38921 21.3199 4.39337 21.3626 4.4017C21.4053 4.41002 21.4421 4.42916 21.4737 4.45994C21.5139 4.49073 21.5421 4.52485 21.5592 4.56396C21.5763 4.60307 21.5848 4.64717 21.5848 4.6971V9.39446L21.584 9.39696ZM17.3672 7.06284C17.3672 7.24591 17.3963 7.41816 17.4552 7.57793C17.5133 7.73769 17.5971 7.87583 17.7056 7.99233C17.8142 8.10882 17.9449 8.20119 18.0971 8.26942C18.25 8.33766 18.4184 8.37178 18.6047 8.37178C18.791 8.37178 18.9739 8.33766 19.138 8.26942C19.3021 8.20119 19.4448 8.10882 19.5662 7.99233C19.6875 7.87583 19.7824 7.73769 19.8508 7.57793C19.9191 7.41816 19.9533 7.24674 19.9533 7.06284C19.9533 6.87894 19.9191 6.71584 19.8508 6.55441C19.7824 6.39298 19.6875 6.25152 19.5662 6.12919C19.4448 6.00687 19.3021 5.91034 19.138 5.83961C18.9739 5.76888 18.7961 5.7331 18.6047 5.7331C18.4133 5.7331 18.25 5.76888 18.0971 5.83961C17.9441 5.91034 17.8142 6.00687 17.7056 6.12919C17.5971 6.25152 17.5133 6.39298 17.4552 6.55441C17.3971 6.71584 17.3672 6.88476 17.3672 7.06284Z" fill="#00ACD4"/>
<path d="M22.6112 4.7205C22.6112 4.66808 22.6215 4.62148 22.6411 4.5832C22.6608 4.54409 22.6873 4.51247 22.7206 4.4875C22.7531 4.46254 22.7907 4.4434 22.8317 4.43092C22.8727 4.41844 22.9137 4.41178 22.9539 4.41178H23.6C23.6709 4.41178 23.7282 4.43258 23.7709 4.47419C23.8137 4.5158 23.8504 4.56905 23.8803 4.6323C23.9102 4.69637 23.9367 4.7671 23.9598 4.84449C23.9829 4.92271 24.0094 4.9976 24.041 5.06916C24.1265 4.97763 24.2111 4.88693 24.2957 4.79789C24.3794 4.70885 24.47 4.6298 24.5675 4.56073C24.664 4.49167 24.7709 4.43508 24.8862 4.39181C25.0016 4.34854 25.1341 4.3269 25.2819 4.3269C25.4298 4.3269 25.5734 4.33772 25.6947 4.36019C25.8161 4.38266 25.9306 4.41511 26.0391 4.45838C26.1477 4.50165 26.2554 4.55657 26.3622 4.62314C26.469 4.68971 26.5852 4.76793 26.7109 4.85614C26.8339 4.92604 26.8946 5.00758 26.8946 5.10245C26.8946 5.16319 26.8707 5.23476 26.822 5.31464L26.4323 5.96037C26.3554 6.06855 26.2596 6.12264 26.1451 6.12264C26.0879 6.12264 26.0238 6.10766 25.9528 6.07687C25.8298 5.96037 25.705 5.873 25.5785 5.81641C25.4511 5.75983 25.3067 5.7307 25.1443 5.7307C25.0332 5.7307 24.935 5.74568 24.8512 5.77647C24.7674 5.80726 24.6905 5.85053 24.6222 5.90545C24.5538 5.9612 24.4897 6.02777 24.4299 6.10516C24.37 6.18338 24.3102 6.26909 24.2504 6.36395V9.38208C24.2504 9.48776 24.2239 9.56764 24.1709 9.62173C24.1179 9.67582 24.0299 9.70328 23.9077 9.70328H22.9445C22.7223 9.70328 22.6104 9.59677 22.6104 9.38208V4.718L22.6112 4.7205Z" fill="#00ACD4"/>
<path d="M27.8679 3.58627C27.8679 3.50056 27.897 3.43566 27.956 3.39238C28.0141 3.34911 28.0978 3.30834 28.2064 3.26923L29.1781 2.93971C29.1926 2.93721 29.2054 2.93555 29.2182 2.93555H29.255C29.3601 2.93555 29.431 2.9655 29.4669 3.02542C29.5028 3.08533 29.5208 3.16355 29.5208 3.26091L29.5165 4.40758H30.1028C30.1942 4.40758 30.2686 4.43421 30.325 4.48663C30.3823 4.53906 30.4105 4.61894 30.4105 4.72462V5.52929C30.4105 5.64579 30.3814 5.73149 30.325 5.78558C30.2677 5.83967 30.1934 5.86713 30.1028 5.86713H29.5165L29.5208 9.38537C29.5208 9.49105 29.4892 9.57093 29.4268 9.62502C29.3635 9.67911 29.2772 9.70657 29.1653 9.70657H28.1978C27.9782 9.70657 27.8679 9.60006 27.8679 9.38537L27.8637 5.86713H27.4227C27.203 5.86713 27.0928 5.75479 27.0928 5.52929V4.72462C27.0928 4.51326 27.2022 4.40758 27.4227 4.40758H27.8637L27.8679 3.58627Z" fill="#00ACD4"/>
<path d="M36.263 9.63488C36.2263 9.66567 36.187 9.68481 36.1451 9.69313C36.1032 9.70145 36.0648 9.70562 36.0272 9.70562H35.3811C35.3298 9.70562 35.2853 9.69646 35.2486 9.67816C35.2118 9.65985 35.1802 9.63572 35.1546 9.60576C35.1289 9.57497 35.1076 9.54085 35.0905 9.50174C35.0734 9.46263 35.0589 9.42269 35.0477 9.38109L34.958 8.97334C34.9153 9.05905 34.8435 9.14975 34.7444 9.24545C34.6444 9.34114 34.5213 9.42935 34.3743 9.50923C34.2273 9.58995 34.0581 9.65652 33.8666 9.70894C33.6752 9.76137 33.4667 9.788 33.2419 9.788C32.9163 9.788 32.6283 9.72725 32.377 9.60493C32.1258 9.48261 31.9138 9.31618 31.7412 9.10482C31.5685 8.89346 31.4378 8.64715 31.3498 8.36506C31.2617 8.08297 31.2173 7.78257 31.2173 7.46303V4.73282C31.2173 4.62714 31.2404 4.54726 31.2882 4.49317C31.3352 4.43908 31.4104 4.41162 31.513 4.41162H32.5018C32.6249 4.41162 32.7086 4.43159 32.7548 4.47237C32.8001 4.51314 32.8231 4.59136 32.8231 4.70786V7.42392C32.8231 7.54375 32.8471 7.65692 32.8941 7.76426C32.9411 7.87161 33.0043 7.96564 33.0847 8.04802C33.1641 8.1304 33.2581 8.19447 33.365 8.2419C33.4718 8.28934 33.5855 8.31263 33.7051 8.31263C33.8077 8.31263 33.9188 8.29599 34.0393 8.26271C34.1589 8.22942 34.2709 8.177 34.3734 8.10627C34.476 8.03554 34.5615 7.944 34.6307 7.83333C34.6991 7.72182 34.7332 7.58868 34.7332 7.43308V4.72117C34.7332 4.67374 34.7426 4.62631 34.7606 4.57971C34.7794 4.53228 34.8067 4.4965 34.8443 4.47153C34.8811 4.44907 34.9161 4.43409 34.9495 4.42577C34.9828 4.41745 35.0204 4.41329 35.0631 4.41329H36.0306C36.1536 4.41329 36.2417 4.44241 36.2964 4.50066C36.3502 4.55891 36.3776 4.63713 36.3776 4.73449V9.39939C36.3776 9.45182 36.3656 9.50091 36.3408 9.54501C36.316 9.58912 36.2827 9.62407 36.24 9.64903L36.2656 9.63655L36.263 9.63488Z" fill="#00ACD4"/>
<path d="M37.5127 4.46175C37.5495 4.43096 37.5879 4.41183 37.6281 4.4035C37.6683 4.39518 37.7067 4.39102 37.7435 4.39102H38.3896C38.4434 4.39102 38.4887 4.39934 38.5246 4.41599C38.5605 4.43263 38.5896 4.45593 38.6126 4.48505C38.6357 4.51418 38.6545 4.54746 38.6707 4.58491C38.6861 4.62235 38.7015 4.66313 38.716 4.70806L38.8955 5.21233C38.975 5.11248 39.0562 5.01013 39.1374 4.90611C39.2186 4.80209 39.3151 4.70723 39.4262 4.62235C39.5373 4.53748 39.6707 4.46758 39.8245 4.41183C39.9783 4.35607 40.1672 4.32861 40.3894 4.32861C40.7808 4.32861 41.1406 4.39851 41.4705 4.53914C41.8004 4.67977 42.0841 4.87282 42.3226 5.1183C42.561 5.36461 42.7473 5.65336 42.8815 5.98538C43.0157 6.3174 43.0824 6.67688 43.0824 7.06298C43.0824 7.44909 43.0157 7.80524 42.8815 8.13809C42.7473 8.47094 42.561 8.76136 42.3226 9.00683C42.0841 9.25314 41.8004 9.4462 41.4705 9.58849C41.1406 9.73078 40.7808 9.80068 40.3894 9.80068C40.204 9.80068 40.0441 9.77905 39.91 9.73578C39.7758 9.69251 39.657 9.63675 39.5527 9.56685C39.4485 9.49779 39.3562 9.42123 39.2767 9.33802C39.1963 9.25481 39.1186 9.17159 39.0416 9.08755V11.0297C39.0416 11.1129 39.016 11.1837 38.9647 11.2419C38.9135 11.3002 38.8331 11.3293 38.7254 11.3293H37.7452C37.711 11.3293 37.6742 11.3226 37.6341 11.3085C37.5939 11.2944 37.5572 11.2752 37.523 11.2502C37.4888 11.2253 37.4606 11.1937 37.4375 11.1562C37.4144 11.1188 37.4033 11.0763 37.4033 11.0289V4.69974C37.4033 4.64399 37.4136 4.59822 37.4349 4.56244C37.4563 4.52666 37.4828 4.49337 37.5144 4.46259L37.5127 4.46175ZM41.5115 7.06298C41.5115 6.88491 41.4816 6.71682 41.4218 6.55622C41.362 6.39645 41.2774 6.25665 41.1688 6.13766C41.0603 6.01783 40.9304 5.9238 40.7791 5.8539C40.6278 5.78484 40.4612 5.74989 40.2783 5.74989C40.0954 5.74989 39.9279 5.78234 39.7664 5.84808C39.6049 5.91298 39.4638 6.00202 39.3425 6.11519C39.2211 6.22753 39.1228 6.36067 39.0468 6.51295C38.9716 6.66606 38.9288 6.82832 38.9203 7.00057V7.06298C38.9203 7.24605 38.9562 7.41913 39.0271 7.57974C39.0981 7.74117 39.1955 7.88013 39.3186 7.9983C39.4416 8.11646 39.5852 8.21049 39.751 8.27955C39.9168 8.34862 40.092 8.38357 40.2775 8.38357C40.4629 8.38357 40.627 8.34862 40.7783 8.27955C40.9295 8.21049 41.0594 8.11646 41.168 7.9983C41.2765 7.88013 41.3603 7.74034 41.4209 7.57974C41.4808 7.4183 41.5107 7.24605 41.5107 7.06298H41.5115Z" fill="#00ACD4"/>
<path d="M6.82524 3.50295C6.81328 3.50295 6.80046 3.50295 6.78764 3.50128C6.58509 3.48131 6.43639 3.3049 6.4569 3.10769C6.46288 3.04444 6.59791 1.53663 5.44843 1.40765C4.97325 1.35439 4.61773 1.55743 4.36305 2.02758C4.15281 2.41536 4.09897 2.83475 4.09897 2.83891C4.07589 3.03612 3.89385 3.17758 3.69045 3.15512C3.4879 3.13265 3.34262 2.95457 3.36569 2.75736C3.36825 2.73489 3.43321 2.20483 3.71011 1.69307C4.1058 0.960797 4.75276 0.606311 5.53304 0.693685C7.03121 0.860942 7.27393 2.39289 7.19274 3.18008C7.17393 3.36565 7.01326 3.50378 6.8261 3.50378L6.82524 3.50295Z" fill="#EC008C"/>
<path d="M8.00713 10.3896C7.98405 10.3896 7.96183 10.3879 7.93876 10.3854L2.56482 9.74469C2.40928 9.72638 2.26912 9.64483 2.17768 9.52168C2.08623 9.39769 2.05205 9.24291 2.08281 9.09313L3.04086 4.50478C3.10239 4.20854 3.39895 4.01715 3.7032 4.0779C4.00745 4.13781 4.20316 4.42656 4.14162 4.7228L3.30494 8.73115L7.48238 9.2296L7.67638 6.08915C7.69519 5.78792 7.96183 5.55825 8.27121 5.57573C8.58059 5.59403 8.81646 5.85283 8.79852 6.15489L8.56862 9.87533C8.55922 10.0259 8.48658 10.1666 8.36778 10.2631C8.26608 10.3455 8.13874 10.3896 8.00798 10.3896H8.00713Z" fill="#EC008C"/>
<path d="M7.8927 12.1803C7.86877 12.1803 7.84485 12.1786 7.82092 12.1761L1.61628 11.4047C0.671056 11.299 -0.0152139 10.4569 0.0933244 9.5291C0.0950337 9.51412 0.0975976 9.49915 0.100161 9.485L1.29067 3.65928C1.34878 3.21991 1.57697 2.82632 1.9342 2.55005C2.29828 2.26879 2.75294 2.14231 3.21444 2.1939L7.30301 2.69484C7.75853 2.7456 8.17217 2.96944 8.46104 3.3231C8.7499 3.67758 8.87981 4.12027 8.82682 4.56962C8.79178 4.87002 8.51231 5.08554 8.20465 5.05059C7.89612 5.01648 7.67477 4.7452 7.71067 4.4448C7.72947 4.28587 7.68332 4.1286 7.58076 4.00294C7.47821 3.87729 7.33207 3.79824 7.16883 3.77993L3.08027 3.27899C2.74867 3.24155 2.44271 3.4787 2.40425 3.80739C2.40254 3.82237 2.39998 3.83735 2.39741 3.8515L1.20862 9.6714C1.18127 9.9926 1.42142 10.2805 1.75217 10.3171L7.96364 11.0893C8.27131 11.1276 8.48924 11.4014 8.44993 11.701C8.41403 11.9772 8.17217 12.1786 7.89356 12.1786L7.8927 12.1803Z" fill="#EC008C"/>
</g>
<defs>
<clipPath id="clip0_10696_5602">
<rect width="43" height="11.5" fill="white" transform="translate(0.0820312 0.68042)"/>
</clipPath>
</defs>
</svg>
