<svg width="36" height="36" viewBox="0 0 36 36" fill="none" xmlns="http://www.w3.org/2000/svg">
<rect y="0.790771" width="36" height="34.7689" rx="10" fill="white"/>
<path d="M5.5 16.9311V16.5405C5.68067 16.1362 5.9883 15.9907 6.43265 15.998C7.60457 16.0185 8.77649 16.0053 9.94842 16.0048C10.1926 16.0048 10.4367 16.0156 10.6809 16.0009C11.0998 15.9751 11.3855 15.6557 11.3777 15.2426C11.3699 14.8383 11.1335 14.6176 10.6848 14.5922C10.612 14.5878 10.5383 14.5897 10.4655 14.5897C9.31802 14.5897 8.17084 14.5897 7.02399 14.5897C6.55082 14.5897 6.23245 14.287 6.23245 13.8519C6.23685 13.4276 6.55717 13.1346 7.01373 13.1307C7.28669 13.1307 7.55965 13.1307 7.84384 13.1307C7.84384 12.6004 7.84384 12.1053 7.84384 11.6111C7.84384 11.072 8.1295 10.7908 8.67395 10.7908H21.8581V15.0112C21.8581 15.6264 22.1374 15.9082 22.7468 15.9086C24.5125 15.9086 26.278 15.9086 28.0434 15.9086C28.2294 15.9068 28.415 15.9263 28.5966 15.9668C29.4209 16.1621 30.084 16.5708 30.3848 17.4155C30.4302 17.5445 30.4619 17.6782 30.5 17.8096V22.78C30.3154 23.1975 29.9922 23.3513 29.5434 23.3201C29.1982 23.2961 28.85 23.3152 28.5141 23.3152C27.974 24.7713 27.098 25.5155 25.9124 25.5575C25.3011 25.5789 24.7366 25.4442 24.2209 25.1141C23.5588 24.6902 23.1638 24.0774 22.9768 23.323H15.5727C15.5546 23.3655 15.5351 23.4016 15.5238 23.4397C15.1303 24.7474 14.1009 25.554 12.8201 25.5575C11.5232 25.5604 10.4792 24.7674 10.0905 23.4758C10.0534 23.3538 10.0002 23.3098 9.87175 23.3127C9.4733 23.3206 9.07485 23.3157 8.67591 23.3152C8.13145 23.3152 7.84579 23.0339 7.84579 22.4973C7.84579 21.9113 7.84579 21.3268 7.84579 20.7438V20.3908C7.36482 20.3908 6.91021 20.3712 6.45805 20.3966C6.00588 20.422 5.68409 20.2741 5.5 19.8556V19.4649C5.68067 19.0606 5.9883 18.9122 6.43217 18.9229C7.35066 18.9454 8.27013 18.9298 9.18862 18.9298C10.3845 18.9298 11.5813 18.9322 12.7752 18.9298C13.2264 18.9298 13.5565 18.6109 13.5565 18.1973C13.5565 17.7837 13.2254 17.4761 12.7752 17.4649C12.7102 17.4649 12.6453 17.4649 12.5799 17.4649C10.529 17.4649 8.48156 17.4566 6.43217 17.4717C5.9883 17.4766 5.68116 17.334 5.5 16.9311ZM12.8118 21.4157C12.0706 21.4157 11.4524 22.0305 11.4568 22.7629C11.4617 23.4876 12.0672 24.0877 12.8016 24.0955C13.5208 24.1028 14.139 23.4876 14.1424 22.7605C14.1458 22.0334 13.5325 21.4157 12.8118 21.4157ZM27.0829 22.7737C27.0961 22.0515 26.4886 21.425 25.7645 21.4157C25.4112 21.414 25.0712 21.5497 24.816 21.7941C24.5609 22.0384 24.4108 22.3723 24.3972 22.7253C24.3782 23.4578 24.9832 24.0774 25.7283 24.0926C26.4481 24.1116 27.0692 23.5032 27.0829 22.7737Z" fill="#00ACD4"/>
<path d="M23.3328 14.4296V10.951C25.3426 11.3348 26.4178 12.7728 27.3368 14.4296H23.3328Z" fill="#00ACD4"/>
</svg>
