<svg width="104" height="31" viewBox="0 0 104 31" fill="none" xmlns="http://www.w3.org/2000/svg">
<path d="M99.9074 1.28359C101.687 1.28359 103.134 2.69704 103.134 4.43407V26.9442C103.134 28.6812 101.687 30.0947 99.9074 30.0947H3.84259C2.06347 30.0947 0.615775 28.6812 0.615775 26.9442V4.43407C0.615775 2.69704 2.06347 1.28359 3.84259 1.28359H99.9074ZM99.9074 0.682385H3.84259C1.73013 0.682385 0 2.37158 0 4.43407V26.9442C0 29.0067 1.73013 30.6959 3.84259 30.6959H99.9074C102.02 30.6959 103.75 29.0067 103.75 26.9442V4.43407C103.75 2.37158 102.02 0.682385 99.9074 0.682385Z" fill="#A6A6A6"/>
<path d="M36.4413 8.36864C36.4413 8.99517 36.2492 9.49696 35.8707 9.87119C35.4355 10.3148 34.8688 10.538 34.1742 10.538C33.5104 10.538 32.9436 10.3111 32.4787 9.86368C32.0127 9.40973 31.7803 8.8526 31.7803 8.18574C31.7803 7.51888 32.0127 6.96175 32.4787 6.51155C32.9436 6.06041 33.5104 5.83344 34.1742 5.83344C34.5047 5.83344 34.8198 5.90003 35.1204 6.02383C35.4202 6.14858 35.6642 6.3174 35.8409 6.52562L35.4394 6.92142C35.131 6.56595 34.7112 6.39056 34.1742 6.39056C33.69 6.39056 33.2702 6.55563 32.9138 6.8886C32.5613 7.2225 32.3845 7.65488 32.3845 8.18574C32.3845 8.7166 32.5613 9.15274 32.9138 9.48664C33.2702 9.81585 33.69 9.98467 34.1742 9.98467C34.6882 9.98467 35.1204 9.81585 35.4615 9.48289C35.6863 9.26247 35.814 8.95859 35.8477 8.57029H34.1742V8.02817H36.4068C36.4337 8.14541 36.4413 8.2589 36.4413 8.36864Z" fill="#181717" stroke="white" stroke-width="0.2" stroke-miterlimit="10"/>
<path d="M39.983 6.48902H37.8859V7.91466H39.7765V8.45678H37.8859V9.88242H39.983V10.4349H37.2922V5.93658H39.983V6.48902Z" fill="#181717" stroke="white" stroke-width="0.2" stroke-miterlimit="10"/>
<path d="M42.4828 10.4349H41.8891V6.48902H40.6028V5.93658H43.77V6.48902H42.4828V10.4349Z" fill="#181717" stroke="white" stroke-width="0.2" stroke-miterlimit="10"/>
<path d="M46.0623 10.4349V5.93658H46.655V10.4349H46.0623Z" fill="#181717" stroke="white" stroke-width="0.2" stroke-miterlimit="10"/>
<path d="M49.2823 10.4349H48.6935V6.48902H47.4023V5.93658H50.5734V6.48902H49.2823V10.4349Z" fill="#181717" stroke="white" stroke-width="0.2" stroke-miterlimit="10"/>
<path d="M56.5697 9.85618C56.1153 10.3111 55.5524 10.538 54.8809 10.538C54.2055 10.538 53.6426 10.3111 53.1882 9.85618C52.7348 9.40222 52.509 8.8451 52.509 8.18574C52.509 7.52638 52.7348 6.96926 53.1882 6.5153C53.6426 6.06041 54.2055 5.83344 54.8809 5.83344C55.5485 5.83344 56.1115 6.06041 56.5659 6.51906C57.0231 6.97676 57.2489 7.53013 57.2489 8.18574C57.2489 8.8451 57.0231 9.40222 56.5697 9.85618ZM53.6272 9.47913C53.9692 9.81585 54.3852 9.98467 54.8809 9.98467C55.3727 9.98467 55.7925 9.81585 56.1307 9.47913C56.4717 9.14242 56.6446 8.71004 56.6446 8.18574C56.6446 7.66144 56.4717 7.22906 56.1307 6.89235C55.7925 6.55563 55.3727 6.38681 54.8809 6.38681C54.3852 6.38681 53.9692 6.55563 53.6272 6.89235C53.2862 7.22906 53.1133 7.66144 53.1133 8.18574C53.1133 8.71004 53.2862 9.14242 53.6272 9.47913Z" fill="#181717" stroke="white" stroke-width="0.2" stroke-miterlimit="10"/>
<path d="M58.0818 10.4349V5.93658H58.8023L61.0425 9.43503H61.0684L61.0425 8.57027V5.93658H61.6352V10.4349H61.0166L58.6707 6.76383H58.6447L58.6707 7.63235V10.4349H58.0818Z" fill="#181717" stroke="white" stroke-width="0.2" stroke-miterlimit="10"/>
<path d="M52.363 17.0041C50.558 17.0041 49.0834 18.3453 49.0834 20.1959C49.0834 22.0314 50.558 23.3867 52.363 23.3867C54.1719 23.3867 55.6465 22.0314 55.6465 20.1959C55.6465 18.3453 54.1719 17.0041 52.363 17.0041ZM52.363 22.1299C51.3726 22.1299 50.5205 21.3317 50.5205 20.1959C50.5205 19.045 51.3726 18.2609 52.363 18.2609C53.3535 18.2609 54.2094 19.045 54.2094 20.1959C54.2094 21.3317 53.3535 22.1299 52.363 22.1299ZM45.2072 17.0041C43.3983 17.0041 41.9275 18.3453 41.9275 20.1959C41.9275 22.0314 43.3983 23.3867 45.2072 23.3867C47.0151 23.3867 48.4868 22.0314 48.4868 20.1959C48.4868 18.3453 47.0151 17.0041 45.2072 17.0041ZM45.2072 22.1299C44.2158 22.1299 43.3608 21.3317 43.3608 20.1959C43.3608 19.045 44.2158 18.2609 45.2072 18.2609C46.1976 18.2609 47.0497 19.045 47.0497 20.1959C47.0497 21.3317 46.1976 22.1299 45.2072 22.1299ZM36.692 17.9824V19.3386H40.0091C39.9121 20.0964 39.6527 20.6536 39.255 21.0419C38.7708 21.5108 38.0167 22.0314 36.692 22.0314C34.6506 22.0314 33.0521 20.4228 33.0521 18.4298C33.0521 16.4367 34.6506 14.8281 36.692 14.8281C37.7958 14.8281 38.5989 15.2493 39.1916 15.7951L40.1705 14.8394C39.3415 14.0665 38.2386 13.4728 36.692 13.4728C33.8927 13.4728 31.54 15.6967 31.54 18.4298C31.54 21.1629 33.8927 23.3867 36.692 23.3867C38.205 23.3867 39.3415 22.9027 40.2349 21.9948C41.1504 21.101 41.4357 19.8441 41.4357 18.8293C41.4357 18.5142 41.4088 18.2243 41.3607 17.9824H36.692ZM71.5116 19.0338C71.2417 18.32 70.4088 17.0041 68.7123 17.0041C67.0312 17.0041 65.6315 18.2975 65.6315 20.1959C65.6315 21.9835 67.0168 23.3867 68.8737 23.3867C70.3752 23.3867 71.2417 22.4928 71.5981 21.9723L70.4837 21.2473C70.112 21.7781 69.6057 22.1299 68.8737 22.1299C68.1465 22.1299 67.6249 21.8044 67.2905 21.1629L71.6625 19.3968L71.5116 19.0338ZM67.0542 20.0964C67.0168 18.8659 68.0331 18.2356 68.7613 18.2356C69.3319 18.2356 69.8161 18.5142 69.9775 18.9128L67.0542 20.0964ZM63.5008 23.1925H64.9379V13.8133H63.5008V23.1925ZM61.1472 17.7151H61.0992C60.7764 17.3418 60.1606 17.0041 59.3806 17.0041C57.7436 17.0041 56.2469 18.4072 56.2469 20.2062C56.2469 21.9948 57.7436 23.3867 59.3806 23.3867C60.1606 23.3867 60.7764 23.0462 61.0992 22.6617H61.1472V23.1194C61.1472 24.3396 60.4796 24.9952 59.4027 24.9952C58.5246 24.9952 57.98 24.3762 57.7552 23.8556L56.5054 24.3649C56.8656 25.2109 57.8195 26.252 59.4027 26.252C61.0876 26.252 62.5094 25.2841 62.5094 22.929V17.1983H61.1472V17.7151ZM59.5035 22.1299C58.5131 22.1299 57.6841 21.3204 57.6841 20.2062C57.6841 19.0816 58.5131 18.2609 59.5035 18.2609C60.4796 18.2609 61.249 19.0816 61.249 20.2062C61.249 21.3204 60.4796 22.1299 59.5035 22.1299ZM78.24 13.8133H74.8028V23.1925H76.2361V19.6387H78.24C79.8318 19.6387 81.3929 18.5142 81.3929 16.7256C81.3929 14.9379 79.828 13.8133 78.24 13.8133ZM78.2775 18.3341H76.2361V15.118H78.2775C79.3476 15.118 79.9586 15.9855 79.9586 16.7256C79.9586 17.4515 79.3476 18.3341 78.2775 18.3341ZM87.1375 16.9863C86.102 16.9863 85.0251 17.4327 84.5822 18.4223L85.8541 18.9428C86.1279 18.4223 86.6313 18.2534 87.1635 18.2534C87.907 18.2534 88.6611 18.6896 88.6727 19.4596V19.5581C88.4133 19.4118 87.858 19.1951 87.175 19.1951C85.8051 19.1951 84.4093 19.9314 84.4093 21.3054C84.4093 22.5622 85.5313 23.3717 86.7927 23.3717C87.7572 23.3717 88.2894 22.9468 88.6237 22.4525H88.6727V23.1775H90.0569V19.5796C90.0569 17.9167 88.785 16.9863 87.1375 16.9863ZM86.9646 22.1261C86.4958 22.1261 85.8426 21.8991 85.8426 21.3317C85.8426 20.6057 86.6572 20.3272 87.3623 20.3272C87.9935 20.3272 88.2894 20.4632 88.6727 20.6423C88.5603 21.5108 87.7946 22.1261 86.9646 22.1261ZM95.1003 17.1917L93.4528 21.2576H93.4038L91.7006 17.1917H90.1549L92.7141 22.8736L91.2539 26.0354H92.7516L96.695 17.1917H95.1003ZM82.1806 23.1925H83.6177V13.8133H82.1806V23.1925Z" fill="#181717"/>
<path d="M8.01949 6.33895C7.79373 6.56968 7.66309 6.92891 7.66309 7.39411V23.9878C7.66309 24.453 7.79373 24.8123 8.01949 25.043L8.0752 25.0936L17.5991 15.7988V15.5794L8.0752 6.28455L8.01949 6.33895Z" fill="url(#paint0_linear_15484_71224)"/>
<path d="M20.77 18.8987L17.5989 15.7989V15.5794L20.7738 12.4795L20.8449 12.5199L24.6049 14.6086C25.6779 15.2014 25.6779 16.1768 24.6049 16.7734L20.8449 18.8583L20.77 18.8987Z" fill="url(#paint1_linear_15484_71224)"/>
<path d="M20.8451 18.8584L17.5991 15.6891L8.01953 25.043C8.37593 25.4088 8.95712 25.4529 9.61805 25.0871L20.8451 18.8584Z" fill="url(#paint2_linear_15484_71224)"/>
<path d="M20.8451 12.5199L9.61805 6.29118C8.95712 5.92914 8.37593 5.97322 8.01953 6.33901L17.5991 15.6891L20.8451 12.5199Z" fill="url(#paint3_linear_15484_71224)"/>
<defs>
<linearGradient id="paint0_linear_15484_71224" x1="16.7535" y1="24.1606" x2="4.16462" y2="11.2667" gradientUnits="userSpaceOnUse">
<stop stop-color="#00A0FF"/>
<stop offset="0.0066" stop-color="#00A1FF"/>
<stop offset="0.2601" stop-color="#00BEFF"/>
<stop offset="0.5122" stop-color="#00D2FF"/>
<stop offset="0.7604" stop-color="#00DFFF"/>
<stop offset="1" stop-color="#00E3FF"/>
</linearGradient>
<linearGradient id="paint1_linear_15484_71224" x1="26.0022" y1="15.6881" x2="7.4064" y2="15.6881" gradientUnits="userSpaceOnUse">
<stop stop-color="#FFE000"/>
<stop offset="0.4087" stop-color="#FFBD00"/>
<stop offset="0.7754" stop-color="#FFA500"/>
<stop offset="1" stop-color="#FF9C00"/>
</linearGradient>
<linearGradient id="paint2_linear_15484_71224" x1="19.08" y1="13.9663" x2="2.00855" y2="-3.51888" gradientUnits="userSpaceOnUse">
<stop stop-color="#FF3A44"/>
<stop offset="1" stop-color="#C31162"/>
</linearGradient>
<linearGradient id="paint3_linear_15484_71224" x1="5.60815" y1="30.5637" x2="13.2313" y2="22.7558" gradientUnits="userSpaceOnUse">
<stop stop-color="#32A071"/>
<stop offset="0.0685" stop-color="#2DA771"/>
<stop offset="0.4762" stop-color="#15CF74"/>
<stop offset="0.8009" stop-color="#06E775"/>
<stop offset="1" stop-color="#00F076"/>
</linearGradient>
</defs>
</svg>
