<svg width="36" height="37" viewBox="0 0 36 37" fill="none" xmlns="http://www.w3.org/2000/svg">
<rect y="0.675232" width="36" height="36" rx="10" fill="white"/>
<path d="M10 10.6752C9.46957 10.6752 8.96086 10.8859 8.58579 11.261C8.21071 11.6361 8 12.1448 8 12.6752V16.6752C8.53043 16.6752 9.03914 16.8859 9.41421 17.261C9.78929 17.6361 10 18.1448 10 18.6752C10 19.2057 9.78929 19.7144 9.41421 20.0894C9.03914 20.4645 8.53043 20.6752 8 20.6752V24.6752C8 25.2057 8.21071 25.7144 8.58579 26.0894C8.96086 26.4645 9.46957 26.6752 10 26.6752H26C26.5304 26.6752 27.0391 26.4645 27.4142 26.0894C27.7893 25.7144 28 25.2057 28 24.6752V20.6752C27.4696 20.6752 26.9609 20.4645 26.5858 20.0894C26.2107 19.7144 26 19.2057 26 18.6752C26 18.1448 26.2107 17.6361 26.5858 17.261C26.9609 16.8859 27.4696 16.6752 28 16.6752V12.6752C28 12.1448 27.7893 11.6361 27.4142 11.261C27.0391 10.8859 26.5304 10.6752 26 10.6752H10ZM21.5 13.6752L23 15.1752L14.5 23.6752L13 22.1752L21.5 13.6752ZM14.81 13.7152C15.79 13.7152 16.58 14.5052 16.58 15.4852C16.58 15.9547 16.3935 16.4049 16.0616 16.7368C15.7296 17.0687 15.2794 17.2552 14.81 17.2552C13.83 17.2552 13.04 16.4652 13.04 15.4852C13.04 15.0158 13.2265 14.5656 13.5584 14.2337C13.8904 13.9017 14.3406 13.7152 14.81 13.7152ZM21.19 20.0952C22.17 20.0952 22.96 20.8852 22.96 21.8652C22.96 22.3347 22.7735 22.7849 22.4416 23.1168C22.1096 23.4488 21.6594 23.6352 21.19 23.6352C20.21 23.6352 19.42 22.8452 19.42 21.8652C19.42 21.3958 19.6065 20.9456 19.9384 20.6137C20.2704 20.2817 20.7206 20.0952 21.19 20.0952Z" fill="#EC008C"/>
</svg>
