<svg width="22" height="30" viewBox="0 0 22 30" fill="none" xmlns="http://www.w3.org/2000/svg">
<path d="M16.7574 7.52796C16.7277 7.52796 16.6959 7.52796 16.664 7.52372C16.1607 7.47274 15.7911 7.0225 15.8421 6.51916C15.8569 6.35775 16.1925 2.50941 13.336 2.18022C12.1552 2.0443 11.2717 2.56251 10.6388 3.76246C10.1163 4.75215 9.98251 5.82255 9.98251 5.83317C9.92516 6.33651 9.47279 6.69756 8.96733 6.64021C8.46399 6.58287 8.10294 6.12838 8.16028 5.62503C8.16665 5.56769 8.32806 4.21483 9.01618 2.90869C9.9995 1.03974 11.6072 0.135 13.5463 0.358C17.2693 0.784884 17.8724 4.69481 17.6707 6.70393C17.624 7.17754 17.2247 7.53009 16.7596 7.53009L16.7574 7.52796Z" fill="#EC008C"/>
<path d="M19.6942 25.1049C19.6369 25.1049 19.5816 25.1006 19.5243 25.0942L6.16983 23.4589C5.78329 23.4122 5.43499 23.2041 5.20774 22.8897C4.9805 22.5733 4.89554 22.1783 4.972 21.796L7.35279 10.0853C7.5057 9.32925 8.24266 8.84077 8.99873 8.99581C9.75481 9.14872 10.2412 9.88568 10.0882 10.6418L8.00904 20.8721L18.3902 22.1443L18.8723 14.129C18.919 13.3602 19.5816 12.7741 20.3505 12.8187C21.1193 12.8654 21.7055 13.5259 21.6609 14.2968L21.0896 23.7924C21.0662 24.1768 20.8857 24.5357 20.5905 24.782C20.3377 24.9923 20.0213 25.1049 19.6963 25.1049H19.6942Z" fill="#EC008C"/>
<path d="M19.4099 29.6753C19.3504 29.6753 19.291 29.6711 19.2315 29.6647L3.81268 27.6959C1.46376 27.4262 -0.241659 25.2769 0.0280641 22.9089C0.0323117 22.8706 0.0386831 22.8324 0.0450545 22.7963L3.00351 7.92757C3.14793 6.8062 3.71499 5.80164 4.60274 5.09654C5.50748 4.37869 6.63734 4.05587 7.7842 4.18755L17.9445 5.46608C19.0765 5.59563 20.1044 6.16693 20.8222 7.06955C21.5401 7.97429 21.8629 9.10415 21.7312 10.251C21.6441 11.0177 20.9497 11.5678 20.1851 11.4786C19.4184 11.3915 18.8683 10.6991 18.9575 9.93244C19.0043 9.52679 18.8896 9.12539 18.6347 8.8047C18.3799 8.484 18.0167 8.28224 17.611 8.23552L7.45076 6.95699C6.62672 6.86142 5.8664 7.4667 5.77083 8.3056C5.76658 8.34383 5.76021 8.38206 5.75384 8.41817L2.79963 23.272C2.73167 24.0918 3.32846 24.8267 4.15037 24.9201L19.5862 26.891C20.3507 26.9887 20.8923 27.6874 20.7946 28.452C20.7054 29.1571 20.1044 29.6711 19.412 29.6711L19.4099 29.6753Z" fill="#EC008C"/>
</svg>
