<svg width="37" height="40" viewBox="0 0 37 40" fill="none" xmlns="http://www.w3.org/2000/svg">
<path fill-rule="evenodd" clip-rule="evenodd" d="M28.6 8H8.06668C5.23162 8 2.93335 10.5072 2.93335 13.6V14.4H33.7333V13.6C33.7333 10.5072 31.4351 8 28.6 8ZM2.93335 28V20.8H33.7333V28C33.7333 31.0928 31.4351 33.6 28.6 33.6H8.06668C5.23162 33.6 2.93335 31.0928 2.93335 28ZM28.6 28.8H22.7333C22.3283 28.8 22 28.4418 22 28C22 27.5582 22.3283 27.2 22.7333 27.2H28.6C29.005 27.2 29.3333 27.5582 29.3333 28C29.3333 28.4418 29.005 28.8 28.6 28.8ZM2.93335 19.2V16H33.7333V19.2H2.93335Z" fill="#EC008C"/>
</svg>
