<svg width="38" height="40" viewBox="0 0 38 40" fill="none" xmlns="http://www.w3.org/2000/svg">
<path fill-rule="evenodd" clip-rule="evenodd" d="M3.59998 20.8H19.7333V10.4C19.7333 8.84603 20.5456 7.499 21.7323 6.83673C21.3744 6.5616 20.9378 6.40002 20.4666 6.40002H5.79998C4.58495 6.40002 3.59998 7.47454 3.59998 8.80002V20.8ZM34.4 24.8C34.4 24.1853 34.1881 23.6245 33.8397 23.1999C34.1881 22.7753 34.4 22.2145 34.4 21.5997V19.2H29.2666C28.0516 19.2 27.0666 18.1255 27.0666 16.8V13.6C27.0666 12.2745 28.0516 11.2 29.2666 11.2H33.1853L33.1479 11.034C32.9341 10.085 32.2143 9.37223 31.3278 9.23169L23.7164 8.02497C23.6116 8.00836 23.5059 8.00002 23.4 8.00002C22.1849 8.00002 21.2 9.07454 21.2 10.4V21.5997C21.2 21.8804 21.2441 22.1497 21.3253 22.4H5.79998C4.58495 22.4 3.59998 23.4745 3.59998 24.8V26.4C3.59998 27.7255 4.58495 28.8 5.79998 28.8H6.58529C6.94113 26.0862 9.08056 24 11.6666 24C14.2527 24 16.3922 26.0862 16.748 28.8H22.7186C23.0745 26.0862 25.2139 24 27.8 24C30.3504 24 32.4664 26.0291 32.8656 28.6882C33.7553 28.3805 34.4 27.4724 34.4 26.4V24.8ZM34.3364 16.31L33.5457 12.8H29.2666C28.8616 12.8 28.5333 13.1582 28.5333 13.6V16.8C28.5333 17.2419 28.8616 17.6 29.2666 17.6H34.4V16.8828C34.4 16.6898 34.3786 16.4974 34.3364 16.31ZM15.3333 29.6C15.3333 31.8092 13.6917 33.6 11.6666 33.6C9.6416 33.6 7.99998 31.8092 7.99998 29.6C7.99998 27.3909 9.6416 25.6 11.6666 25.6C13.6917 25.6 15.3333 27.3909 15.3333 29.6ZM31.4666 29.6C31.4666 31.8092 29.825 33.6 27.8 33.6C25.7749 33.6 24.1333 31.8092 24.1333 29.6C24.1333 27.3909 25.7749 25.6 27.8 25.6C29.825 25.6 31.4666 27.3909 31.4666 29.6Z" fill="#EC008C"/>
</svg>
